<?xml version="1.0" standalone="no"?>
<!DOCTYPE svg PUBLIC "-//W3C//DTD SVG 1.1//EN" "http://www.w3.org/Graphics/SVG/1.1/DTD/svg11.dtd" >
<svg xmlns="http://www.w3.org/2000/svg">
<metadata></metadata>
<defs>
<font id="mb_noiritalic" horiz-adv-x="1161" >
<font-face units-per-em="2048" ascent="1536" descent="-512" />
<missing-glyph horiz-adv-x="450" />
<glyph unicode="&#xfb01;" horiz-adv-x="749" d="M2 0l160 1012q17 124 92.5 239t187.5 187l37 24l49 -82l-39 -24q-90 -61 -151 -153t-74 -191l-2 -4h451l-158 -1008h-104l143 905h-346l-144 -905h-102zM645 1231l33 205h102l-32 -205h-103z" />
<glyph horiz-adv-x="0" />
<glyph horiz-adv-x="682" />
<glyph horiz-adv-x="0" />
<glyph horiz-adv-x="0" />
<glyph unicode="&#xd;" horiz-adv-x="450" />
<glyph unicode=" "  horiz-adv-x="450" />
<glyph unicode="&#x09;" horiz-adv-x="450" />
<glyph unicode="&#xa0;" horiz-adv-x="450" />
<glyph unicode="!" horiz-adv-x="299" d="M0 0l29 193h104l-29 -193h-104zM47 307l180 1131h105l-180 -1131h-105z" />
<glyph unicode="&#x22;" horiz-adv-x="364" d="M197 1245l34 217h84l-34 -217h-84zM375 1245l35 217h84l-35 -217h-84z" />
<glyph unicode="#" horiz-adv-x="716" d="M162 1034l16 99h123q2 15 6 39t6 38h-123l17 99h123l18 125h101q-15 -90 -19 -125h76l18 125h101q-15 -90 -19 -125h123l-16 -99h-123q-2 -14 -6 -38t-6 -39h122l-16 -99h-123l-18 -125h-101q15 90 19 125h-76l-18 -125h-101q15 90 19 125h-123zM401 1133h76q2 15 6 39 t6 38h-75q-2 -15 -6.5 -39t-6.5 -38z" />
<glyph unicode="$" horiz-adv-x="1103" d="M39 258l55 94l33 -16q119 -53 206.5 -79.5t180.5 -25.5q74 0 153.5 32t142 94.5t75.5 138.5q8 49 -7.5 87.5t-43.5 60.5t-72 37.5t-82.5 22t-85.5 9.5q-56 3 -104 10t-103.5 26t-92.5 48t-57 79t-10 115q14 95 86 170t174 115q68 24 123 27l23 133h100q-16 -100 -22 -133 q48 -6 102.5 -21.5t88 -29t99.5 -40.5l35 -16l-51 -94l-37 16q-101 43 -171.5 64.5t-147.5 21.5q-98 0 -192.5 -61t-108.5 -152q-7 -43 8.5 -74.5t36.5 -48.5t67 -29t69.5 -15t75.5 -8q20 -2 29 -3q250 -13 336 -133q53 -74 37 -184q-24 -147 -164 -251.5t-297 -113.5 l-20 -131h-100q14 100 20 133q-59 6 -123.5 24t-108.5 35.5t-118 49.5z" />
<glyph unicode="%" horiz-adv-x="1341" d="M0 0h121l1141 1436h-123zM199 1155q19 123 120 210t224 87t196 -87t54 -210q-20 -123 -120.5 -210t-223.5 -87t-196.5 87t-53.5 210zM303 1155q-12 -80 35.5 -136t126.5 -56q80 0 146.5 56.5t78.5 135.5t-36 136t-128 57t-145.5 -57t-77.5 -136zM506 328 q23 143 141 244.5t260 101.5q144 0 229 -101.5t62 -244.5q-23 -145 -139.5 -245.5t-261.5 -100.5q-143 0 -228.5 101t-62.5 245zM610 328q-17 -101 43 -172.5t160 -71.5q101 0 183.5 71.5t99.5 172.5q15 100 -44.5 171.5t-160.5 71.5q-100 0 -183 -71.5t-98 -171.5z" />
<glyph unicode="&#x26;" horiz-adv-x="1249" d="M66.5 416.5q12.5 157.5 105.5 279.5q96 114 231 162l-18 29q-16 31 -18 31l-10 20q-10 20 -22.5 55.5t-17.5 71.5q-8 72 19 143.5t77.5 125t122 86.5t146.5 32q126 6 206.5 -92.5t57.5 -224.5q-7 -72 -44 -130t-94.5 -96t-117 -62.5t-127.5 -39.5q69 -120 301 -494 q36 63 45 131l6 35h101q-6 -29 -6 -35q-15 -101 -74 -190q-2 -3 -5.5 -9.5t-6 -11t-6.5 -8.5l137 -225h-125q-57 96 -84 139q-20 -23 -70 -59q-109 -80 -236 -99t-237.5 26t-175.5 143q-73 109 -60.5 266.5zM167.5 423.5q-9.5 -125.5 47.5 -212.5q75 -117 227.5 -132.5 t284.5 79.5q40 29 68 61q-4 9 -166.5 273.5t-171.5 283.5q-69 -24 -120 -53.5t-87 -77.5q-73 -96 -82.5 -221.5zM416 1094q3 -19 9 -38.5t10.5 -32t17.5 -35.5t16.5 -29.5t21 -34.5t19.5 -31q16 5 51.5 15t54 15.5t50.5 17.5t50.5 22.5t43 28t39.5 37t28.5 47t20.5 59.5 q15 89 -39 153t-141 64q-108 0 -181.5 -77t-70.5 -181z" />
<glyph unicode="'" horiz-adv-x="186" d="M197 1245l34 217h84l-34 -217h-84z" />
<glyph unicode="(" horiz-adv-x="462" d="M81 458q2 75 15 158l31 197q17 109 56.5 217.5t73 172.5t97.5 177q6 8 27.5 43t24.5 39l88 -39q-124 -216 -165 -306q-75 -161 -98 -304l-30 -197q-10 -62 -11 -124.5t1.5 -107t17.5 -121.5t23.5 -116t33.5 -141l-98 -39q-16 51 -25 82q-22 86 -31.5 132.5t-21 124 t-9.5 152.5z" />
<glyph unicode=")" horiz-adv-x="462" d="M2 6q70 126 96.5 175.5t68 136.5t61.5 154.5t32 143.5l31 197q6 37 9.5 72.5t2 76t-1.5 66.5t-7.5 72.5t-9 63t-13.5 69.5t-14 61t-17 67.5t-15 61.5l101 39l10 -36q10 -35 12 -46q21 -80 32 -131.5t21.5 -126t8.5 -150t-15 -159.5l-30 -197q-17 -109 -56 -216.5 t-74 -174.5t-98 -176q-9 -16 -25.5 -42.5t-23.5 -39.5z" />
<glyph unicode="*" horiz-adv-x="708" d="M168 1004q107 84 162 129h-152l17 98h147q-17 20 -47 51.5t-51 52.5l-21 21l82 69q64 -94 105 -139l24 150h101q-17 -99 -25 -150l152 139l57 -69q-103 -80 -156 -125h146l-17 -98h-147l119 -129l-80 -70q-70 98 -107 145l-24 -149h-101q17 96 25 147 q-24 -21 -61.5 -56.5t-63.5 -60.5l-25 -26z" />
<glyph unicode="+" horiz-adv-x="768" d="M72 459l16 106h234l36 236h105q-29 -191 -37 -236h236l-17 -106h-235l-37 -234h-105q29 189 37 234h-233z" />
<glyph unicode="," horiz-adv-x="186" d="M-66 -57q45 29 60 47q6 9 31 168h84l-15 -92q-10 -63 -39 -107q-6 -8 -12.5 -14.5t-16.5 -14.5t-15.5 -12.5t-21 -15t-22.5 -15.5z" />
<glyph unicode="-" horiz-adv-x="765" d="M72 461l16 104h571l-16 -104h-571z" />
<glyph unicode="." horiz-adv-x="186" d="M0 0l25 158h84l-25 -158h-84z" />
<glyph unicode="/" horiz-adv-x="823" d="M0 0l750 1436h106l-752 -1436h-104z" />
<glyph unicode="0" horiz-adv-x="1447" d="M113 715q33 217 158 396.5t327 281.5q124 59 258 59q128 0 240 -59q167 -96 235.5 -280t34.5 -398q-23 -145 -90.5 -278.5t-169.5 -235.5q-99 -103 -225 -162t-258 -59q-131 0 -239 60t-175 161q-69 103 -94 236.5t-2 277.5zM226 475.5q21 -122.5 85 -213.5 q53 -82 139 -131t189 -49q104 0 205 48.5t182 131.5q89 92 147.5 211t79.5 242q16 80 8 168.5t-32.5 166.5t-77.5 145t-127 105q-80 50 -184 50q-97 0 -203 -50q-114 -49 -204 -149.5t-138.5 -210.5t-67.5 -225q-22 -117 -1 -239.5z" />
<glyph unicode="1" horiz-adv-x="428" d="M129 0q191 1204 207 1296l-90 -41l-33 91l252 118l-232 -1464h-104z" />
<glyph unicode="2" horiz-adv-x="1019" d="M0 0q142 157 424.5 476t345.5 392q91 118 109 222q17 107 -45.5 182.5t-167.5 75.5q-115 0 -267 -58l-39 -16l-24 96l43 14q166 68 303 68q147 0 234.5 -106t64.5 -256q-22 -138 -135 -277q-57 -71 -629 -711h623l-15 -102h-825z" />
<glyph unicode="3" horiz-adv-x="1005" d="M10 74l56 96l32 -16q173 -72 299 -72q134 0 244 96q111 91 133 230q21 132 -59 225q-80 92 -213 92h-66l15 102h38q107 0 197 76.5t107 183.5q17 109 -48 186t-172 77q-110 0 -270 -60l-41 -16l-22 96l41 14q172 66 309 66q152 0 241 -106t66 -257q-22 -123 -109 -217 q-43 -46 -98 -82q64 -30 109 -81q103 -121 75 -299t-169 -304q-149 -124 -324 -124q-147 0 -334 77z" />
<glyph unicode="4" horiz-adv-x="1150" d="M70 446l946 1016q-138 -860 -146 -915h172l-16 -101h-172l-70 -446h-98q62 395 70 446h-686zM289 547h483q31 190 98 622q-32 -33 -289.5 -310t-291.5 -312z" />
<glyph unicode="5" horiz-adv-x="1089" d="M12 84l54 96l36 -16q189 -80 334 -80q152 0 277 109q125 107 147 258q25 155 -65 256q-87 104 -242 104l-369 2l211 623h619l-19 -105h-530q-7 -22 -70.5 -208.5t-70.5 -207.5h245q189 0 312 -133q115 -136 84 -331q-13 -92 -63 -178.5t-126 -153.5q-162 -137 -356 -137 q-162 0 -371 88z" />
<glyph unicode="6" horiz-adv-x="1122" d="M70 449q50 319 262 587q196 258 502 402l36 20l35 -90q-300 -139 -497 -387q-68 -87 -132 -209q66 59 155.5 99t174.5 40q123 0 220.5 -62.5t144 -169t26.5 -230.5q-14 -93 -65 -179.5t-123.5 -148.5t-164.5 -99.5t-185 -37.5q-124 0 -220.5 63t-142 170.5t-26.5 231.5z M174 449q-26 -148 64 -254.5t237 -106.5q149 0 272 106t146 255q25 148 -64.5 253t-238.5 105q-147 0 -271.5 -105.5t-144.5 -252.5z" />
<glyph unicode="7" horiz-adv-x="1124" d="M0 0q5 10 223.5 311.5t462 637t277.5 382.5h-715l18 105h891l-1040 -1436h-117z" />
<glyph unicode="8" horiz-adv-x="1056" d="M66 416q20 129 112 241.5t219 143.5q-85 33 -124 116.5t-23 180.5q23 146 143.5 250t265.5 104q146 0 233 -104t64 -250q-14 -98 -79 -182t-162 -115q119 -31 176 -142.5t37 -242.5q-19 -117 -93 -217t-183 -158.5t-226 -58.5q-178 0 -283 127q-105 123 -77 307zM168 416 q-22 -140 59 -234q81 -96 215 -96q135 0 248 97t135 233q22 134 -61 231.5t-217 97.5q-132 0 -245.5 -98t-133.5 -231zM352 1098q-15 -104 46.5 -178t164.5 -74q105 0 190.5 74t100.5 178q17 104 -45 177t-166 73q-103 0 -188.5 -73t-102.5 -177z" />
<glyph unicode="9" horiz-adv-x="1122" d="M156 989q31 190 190 327.5t348 137.5q124 0 220.5 -63t142 -170.5t26.5 -231.5q-50 -319 -260 -588q-200 -259 -501 -401l-39 -20l-35 90q305 141 497 387q68 87 132 209q-66 -60 -155.5 -100t-174.5 -40q-123 0 -220 62.5t-143.5 169.5t-27.5 231zM260 989 q-23 -149 66 -253.5t237 -104.5q147 0 271.5 105.5t144.5 252.5q26 148 -64 254.5t-237 106.5q-149 0 -272 -106t-146 -255z" />
<glyph unicode=":" horiz-adv-x="186" d="M47 305l31 197h84l-31 -197h-84zM96 612l31 197h84l-31 -197h-84z" />
<glyph unicode=";" horiz-adv-x="186" d="M-66 -57q45 29 60 47q6 9 31 168h84l-15 -92q-10 -63 -39 -107q-6 -8 -12.5 -14.5t-16.5 -14.5t-15.5 -12.5t-21 -15t-22.5 -15.5zM47 305l31 197h84l-31 -197h-84z" />
<glyph unicode="&#x3c;" horiz-adv-x="612" d="M80 510l461 272l-19 -120q-193 -115 -254 -152l205 -150l-18 -122z" />
<glyph unicode="=" horiz-adv-x="770" d="M55 356l17 107h575l-16 -107h-576zM88 563l16 105h576l-16 -105h-576z" />
<glyph unicode="&#x3e;" horiz-adv-x="612" d="M37 238l18 122q193 113 254 150l-205 152l19 120l375 -272z" />
<glyph unicode="?" horiz-adv-x="997" d="M213 1356l43 16q204 78 354 78q175 0 279 -125q104 -122 76 -301q-28 -173 -170 -297q-119 -102 -279 -102l-51 -316h-103l64 400h68q133 0 239 92q106 87 129 223q22 136 -59 229q-76 95 -209 95q-119 0 -318 -70l-38 -16zM315 0l29 193h100l-28 -193h-101z" />
<glyph unicode="@" horiz-adv-x="1470" d="M80 512q30 188 163.5 349t319.5 226q119 52 254 52q126 0 237 -48t185 -137q76 -87 106.5 -202t10.5 -240q-25 -166 -133 -305q-85 -122 -265 -225l-88 -48q29 178 39 246q-108 -96 -256 -96q-118 0 -210 57.5t-136 157t-26 217.5q29 179 179 304.5t331 125.5 q48 0 92.5 -9t70.5 -19t66 -29l96 -53q-96 -607 -112 -711q90 61 139 131q90 119 112 256q17 104 -9.5 200.5t-90.5 172.5q-61 72 -154.5 111.5t-199.5 39.5q-110 0 -217 -41q-157 -64 -266.5 -194.5t-135.5 -288.5q-25 -157 44.5 -288t205.5 -195q100 -41 203 -41h43 l-16 -103h-44q-127 0 -237 52q-165 65 -248 226.5t-53 348.5zM385 516q-19 -141 61 -233q86 -99 224 -99q130 0 260 119q2 11 37.5 233t38.5 240q-9 4 -36 17t-37.5 17.5t-33.5 13.5t-39 12.5t-39 6.5t-47 3q-137 0 -252 -97.5t-137 -232.5z" />
<glyph unicode="A" horiz-adv-x="1464" d="M0 0l866 1464l404 -1464h-111q-143 512 -151 547h-574l-323 -547h-111zM494 647h487q-40 141 -156 561q-15 -25 -97 -163t-150.5 -255t-83.5 -143z" />
<glyph unicode="B" horiz-adv-x="1155" d="M0 0l227 1436h533q78 0 137 -27q68 -25 109 -78q74 -85 74 -198q0 -30 -5 -62q-22 -152 -151 -262q-42 -36 -99 -47q30 -8 65 -30.5t58 -49.5q51 -61 68 -129q11 -40 11 -88q0 -33 -5 -70q-25 -163 -162 -282q-131 -113 -303 -113h-557zM119 102h452q131 0 228 82 q103 89 121 211q3 21 3 42q0 38 -10 75q-12 58 -49 98q-75 90 -200 90h-449q-28 -165 -96 -598zM231 805h428q114 0 205.5 78t108.5 188q4 23 4 45q0 81 -53 139q-66 78 -181 78h-428q-76 -473 -84 -528z" />
<glyph unicode="C" horiz-adv-x="1447" d="M113 713q24 152 104 291q76 133 197 237q117 99 264 156q141 59 299 59q133 0 246 -43q117 -45 229 -149l-78 -78l-28 26q-78 69 -172 103q-95 39 -213 39q-134 0 -259 -49q-131 -54 -227 -140q-95 -77 -172 -202q-69 -125 -86 -250q-8 -51 -9 -103q0 -72 17 -143 q38 -126 107 -203q71 -86 184 -139q105 -47 244 -47q120 0 219 37q105 29 240 129l55 -82q-144 -104 -275 -146q-128 -43 -258 -43q-148 0 -280 60q-132 58 -213 155q-88 101 -123 238q-22 85 -22 171q0 58 10 116z" />
<glyph unicode="D" horiz-adv-x="1394" d="M0 0l227 1436h469h8q293 0 476 -207q86 -100 121 -234q21 -81 21 -165q0 -55 -9 -111q-23 -146 -99.5 -277.5t-197.5 -234.5q-122 -102 -262 -156q-133 -51 -270 -51h-15h-469zM117 102h366q128 0 250.5 45.5t220.5 133.5q102 86 168 199.5t86 238.5q8 50 8 98 q0 71 -18 139q-30 114 -104 199q-144 178 -414 178h-367q-5 -26 -98 -614t-98 -617z" />
<glyph unicode="E" horiz-adv-x="1046" d="M0 0l227 1436h852l-16 -103h-750l-42 -262.5t-42 -263.5h510l-16 -105h-510q-85 -541 -96 -600h749l-14 -102h-852z" />
<glyph unicode="F" horiz-adv-x="1056" d="M0 0l227 1436h863l-17 -103h-758q-4 -25 -42 -263.5t-42 -264.5h506l-16 -103h-506l-111 -702h-104z" />
<glyph unicode="G" horiz-adv-x="1439" d="M113 719q23 145 101.5 280.5t197.5 241.5q123 102 267.5 158.5t289.5 56.5q127 0 240 -43t200 -123l-78 -82q-71 71 -169.5 107.5t-209.5 36.5q-127 0 -252 -48.5t-225 -138.5q-103 -83 -170 -201t-88 -245q-8 -50 -8 -98q0 -74 19 -145q30 -116 104 -206 q75 -89 184 -136.5t236 -47.5q142 0 417 104q62 380 82 515h-501l16 102h606l-127 -807h-104q10 67 12 90q-81 -32 -132.5 -50t-136 -38t-149.5 -20q-149 0 -275 56t-212 161q-87 99 -122 237q-22 84 -22 170q0 56 9 113z" />
<glyph unicode="H" horiz-adv-x="1136" d="M0 0l227 1436h105q-93 -576 -101 -631h736l100 631h102l-227 -1436h-102q102 650 110 705h-735l-111 -705h-104z" />
<glyph unicode="I" horiz-adv-x="299" d="M0 0l227 1436h105l-228 -1436h-104z" />
<glyph unicode="J" horiz-adv-x="421" d="M-109 -147l39 26q91 66 155.5 160t74.5 192q166 1043 176 1102h-125l16 103h228l-193 -1205q-21 -129 -96 -245t-189 -189l-34 -24z" />
<glyph unicode="K" horiz-adv-x="1224" d="M0 0l227 1436h103q-78 -486 -94 -586l851 586h170q-731 -498 -782 -533l539 -903h-129q-473 795 -500 842q-2 -1 -41.5 -28t-78 -53t-48.5 -32l-115 -729h-102z" />
<glyph unicode="L" horiz-adv-x="1050" d="M0 0l227 1436h103q-203 -1277 -213 -1334h753l-14 -102h-856z" />
<glyph unicode="M" horiz-adv-x="1554" d="M0 0l231 1466q504 -827 539 -886l821 884l-231 -1464h-105q160 1011 185 1165l-697 -751q-386 634 -456 751l-185 -1165h-102z" />
<glyph unicode="N" horiz-adv-x="1273" d="M0 0l231 1466q709 -1095 787 -1218l188 1188h101l-236 -1475q-706 1098 -780 1219l-187 -1180h-104z" />
<glyph unicode="O" horiz-adv-x="1671" d="M113 717q24 149 102 287q76 131 195.5 233.5t261.5 161.5q148 57 295 57t273 -56t214 -161q90 -104 124 -238q21 -80 20 -167q0 -57 -9 -117q-23 -148 -100.5 -282.5t-198.5 -239.5q-121 -104 -265 -159.5t-292 -55.5q-220 0 -387 123t-221 327q-22 83 -22 170 q0 58 10 117zM217 717q-8 -52 -9 -102q0 -74 19 -146q42 -172 189.5 -279.5t333.5 -107.5q126 0 251 48.5t228 137.5q215 190 256 449q8 50 8 99q0 73 -18 143q-30 116 -103 208q-77 88 -186 136.5t-236 48.5q-128 0 -256 -49q-121 -51 -223.5 -138.5t-165.5 -199.5 q-66 -115 -88 -248z" />
<glyph unicode="P" horiz-adv-x="1187" d="M0 0l227 1436h547q186 0 295 -121q88 -102 87 -239q0 -35 -5 -72q-28 -181 -180 -308q-149 -127 -334 -127h-442l-91 -569h-104zM211 674h442q140 0 256 96t138 234q4 29 4 56q0 106 -68 179q-79 94 -225 94h-443q-1 -6 -27.5 -172.5t-50 -315.5t-26.5 -171z" />
<glyph unicode="Q" horiz-adv-x="1679" d="M113 715q34 220 189.5 409.5t373.5 272.5q148 57 297 57q146 0 273 -56.5t216 -158.5q89 -104 124 -240q20 -82 20 -168q0 -57 -9 -116q-23 -147 -101 -282.5t-200 -239.5q-107 -94 -240 -150.5t-268 -65.5l-30 -192h-103q25 151 31 192q-130 9 -244 65.5t-194 150.5 q-88 101 -123 238q-21 83 -21 169q0 57 9 115zM217 715q-8 -51 -8 -101q0 -73 17 -144q30 -119 106 -204q143 -169 370 -184l23 141h102q-16 -104 -22 -141q244 16 430 184q103 87 170.5 204.5t87.5 244.5q8 51 8 100q0 73 -18 143q-30 116 -105 207q-75 89 -185.5 138 t-236.5 49q-130 0 -258 -52q-186 -70 -319 -232.5t-162 -352.5z" />
<glyph unicode="R" horiz-adv-x="1210" d="M0 0l227 1436h539q86 0 162 -31q72 -25 129 -92q86 -101 86 -236q0 -35 -6 -73q-13 -88 -60 -168t-119 -140q-107 -90 -239 -118l297 -578h-125q-277 544 -289 569h-407l-91 -569h-104zM211 674h434q141 0 252 94q115 95 137 236q5 30 5 57q0 106 -68 178q-79 94 -221 94 h-435q-1 -6 -27.5 -172.5t-50 -315.5t-26.5 -171z" />
<glyph unicode="S" horiz-adv-x="1327" d="M20 139l56 97q163 -74 284 -112t248 -38q100 0 207.5 44.5t181.5 119.5q86 86 101 186q4 24 4 47q0 126 -125 187q-91 42 -262 55q-71 4 -129.5 12.5t-132 32t-119.5 58.5q-48 36 -72 98q-14 36 -14 78q0 31 8 65q21 135 137 238q85 72 185 108q95 39 196 39 q111 0 212.5 -29.5t240.5 -87.5l37 -16l-56 -98l-37 16q-128 56 -221.5 84.5t-191.5 28.5q-78 0 -160 -32t-141 -85q-91 -84 -99 -176q-3 -19 -3 -37q0 -44 18 -74q25 -42 86 -69q83 -38 276 -52q191 -12 299 -63q79 -34 124 -99t46 -153v-15q0 -175 -137 -315 q-94 -91 -223.5 -145.5t-251.5 -54.5q-134 0 -259 37.5t-313 119.5z" />
<glyph unicode="T" horiz-adv-x="1353" d="M209 1331l18 105h1159l-18 -105h-532l-209 -1331h-105q201 1274 209 1331h-522z" />
<glyph unicode="U" horiz-adv-x="1271" d="M82 524l145 912h103l-146 -912q-6 -39 -6 -76q0 -139 84 -237q104 -129 287 -129t330 129q151 132 178 313l145 912h103l-146 -912q-17 -111 -73.5 -211t-145.5 -176q-190 -160 -408 -160q-107 0 -200 41.5t-156 118.5t-87 177q-14 59 -14 120q0 44 7 90z" />
<glyph unicode="V" horiz-adv-x="1460" d="M227 1436h111q295 -1100 330 -1215l714 1215h111l-866 -1473z" />
<glyph unicode="W" horiz-adv-x="2273" d="M227 1436h111q205 -931 262 -1194l657 1126q236 -880 299 -1126l639 1194h111l-788 -1473q-241 895 -304 1133l-659 -1133z" />
<glyph unicode="X" horiz-adv-x="1361" d="M0 0q602 684 633 719l-406 717h127q322 -568 357 -631l557 631h127q-604 -684 -635 -717l407 -719h-127q-321 570 -358 631l-555 -631h-127z" />
<glyph unicode="Y" horiz-adv-x="1345" d="M227 1436h125q313 -576 348 -639l553 639h125q-631 -732 -645 -748l-108 -688h-103q107 674 109 692z" />
<glyph unicode="Z" horiz-adv-x="1394" d="M0 0q1095 1212 1206 1333h-901l17 103h1105q-1071 -1180 -1208 -1334h934l-14 -102h-1139z" />
<glyph unicode="[" horiz-adv-x="444" d="M0 0l227 1436h250l-16 -103h-146q-5 -28 -98 -615.5t-98 -615.5h141l-14 -102h-246z" />
<glyph unicode="\" horiz-adv-x="823" d="M227 1436h107l295 -1436h-105z" />
<glyph unicode="]" horiz-adv-x="444" d="M4 0l14 102h142q5 28 98 615.5t98 615.5h-145l16 103h250l-227 -1436h-246z" />
<glyph unicode="^" horiz-adv-x="815" d="M143 915l398 549l223 -549h-115q-110 275 -141 347l-252 -347h-113z" />
<glyph unicode="_" horiz-adv-x="952" d="M-18 -121l16 105h756l-17 -105h-755z" />
<glyph unicode="`" horiz-adv-x="380" d="M231 1462h93l163 -194h-92z" />
<glyph unicode="a" d="M80 506q36 223 213 377q183 153 403 153q62 0 123.5 -15t100 -32t92.5 -45l8 64h104l-157 -1008h-105l17 113q-40 -49 -103 -76q-123 -57 -248 -57q-107 0 -198 39.5t-156 113.5q-101 127 -101 285q0 43 7 88zM180 506q-6 -37 -5 -71q0 -130 83 -228q108 -127 287 -127 q102 0 198 47q88 42 156 113l98 614q-61 27 -98 41.5t-97.5 27.5t-121.5 13q-180 0 -326 -127q-147 -125 -174 -303z" />
<glyph unicode="b" horiz-adv-x="1165" d="M0 0l227 1438h103q-68 -422 -78 -494q176 94 348 94q108 0 199 -39.5t153 -113.5q64 -75 90 -173q15 -59 16 -120q0 -41 -7 -84q-36 -223 -217 -375q-179 -156 -402 -156q-128 0 -235 58q-22 11 -44.5 33t-33.5 45l-17 -113h-102zM139 238q40 -64 121 -111 q86 -47 189 -47q183 0 323 125q148 127 176 303q6 36 6 70q0 132 -86 235q-101 123 -284 123q-61 0 -127 -13t-105 -26t-114 -41q-97 -598 -99 -618z" />
<glyph unicode="c" horiz-adv-x="1093" d="M80 510q36 223 215 373q86 74 189 113.5t210 39.5q89 0 174 -32q78 -26 142 -86l28 -27l-77 -78l-27 25q-47 47 -115 71q-76 27 -141 27q-86 0 -170.5 -33.5t-153.5 -93.5q-70 -59 -115.5 -136.5t-58.5 -162.5q-5 -35 -5 -69q0 -132 85 -230q49 -61 122.5 -94t160.5 -33 q74 0 147 25q83 32 135 67l37 29l49 -80l-34 -27q-92 -61 -168 -84q-89 -30 -183 -30q-107 0 -198 39.5t-152 113.5q-64 73 -88 170q-14 57 -15 118q0 42 7 85z" />
<glyph unicode="d" horiz-adv-x="1165" d="M80 508q17 107 73 205t144 172q180 153 401 153q153 0 320 -94l78 494h102l-227 -1438h-103q13 80 17 113q-36 -48 -103 -78q-125 -58 -252 -58q-108 0 -199 40.5t-153 115.5q-105 123 -105 286q0 43 7 89zM182 508q-6 -37 -6 -71q0 -131 84 -232q104 -125 287 -125 q101 0 201 47q96 47 157 111q2 20 99 618q-65 27 -101 40.5t-98 26.5t-123 13q-181 0 -326 -123q-147 -131 -174 -305z" />
<glyph unicode="e" horiz-adv-x="1259" d="M80 508q17 107 72.5 203.5t142.5 169.5q86 75 190 115t211 40q220 0 353 -155q61 -74 87 -171q15 -58 16 -119q0 -41 -7 -83l-8 -49h-961v-10q0 -140 84 -240q104 -125 285 -125q63 0 129.5 13t110 27t112.5 40l70 26l22 -94l-31 -10l-38 -16q-85 -31 -126.5 -44.5 t-117 -28.5t-148.5 -15q-107 0 -198 39.5t-154 113.5q-63 75 -88 172q-15 58 -15 118q0 41 7 83zM193 559h856v10q0 142 -84 242q-110 123 -285 123q-178 0 -326 -123q-118 -103 -161 -252z" />
<glyph unicode="f" horiz-adv-x="505" d="M2 0l160 1012q17 124 92.5 239t187.5 187l37 24l49 -82l-39 -24q-89 -54 -154 -158.5t-73 -189.5h135l-14 -103h-135l-144 -905h-102z" />
<glyph unicode="g" horiz-adv-x="1159" d="M80 510q17 105 72 201.5t141 171.5q86 73 190.5 113t210.5 40q163 0 320 -92l8 64h100l-155 -985q-17 -114 -95 -234q-75 -115 -182 -188l-37 -25l-49 82l37 25q83 55 150 153q60 88 75 187l15 92q-28 -35 -103 -76q-126 -57 -252 -57q-106 0 -197.5 40t-154.5 113 q-101 126 -101 286q0 43 7 89zM182 510q-6 -39 -6 -75q0 -132 84 -226q49 -60 123 -92.5t160 -32.5q99 0 202 47q75 32 156 109l98 616q-63 27 -100 40t-98 25.5t-123 12.5q-184 0 -324 -125q-144 -122 -172 -299z" />
<glyph unicode="h" horiz-adv-x="1011" d="M0 0l227 1436h103q-68 -422 -80 -494q5 2 33.5 14t39 16t39.5 15t45.5 15.5t44.5 12.5t49.5 11.5t47.5 6.5t51 3q160 0 250 -110q75 -89 75 -206q0 -31 -5 -63l-103 -657h-102l102 657q4 25 4 49q1 84 -53 148q-68 82 -184 82q-63 0 -129 -13t-105 -26t-112 -41 l-136 -856h-102z" />
<glyph unicode="i" horiz-adv-x="299" d="M0 0l158 1008h104l-158 -1008h-104zM195 1231l32 205h103l-33 -205h-102z" />
<glyph unicode="j" horiz-adv-x="294" d="M-264 -344l37 27q88 59 155 151q64 99 76 199l154 975h100l-154 -975q-21 -130 -96 -246q-69 -108 -186 -186l-37 -27zM195 1231l32 205h101l-33 -205h-100z" />
<glyph unicode="k" horiz-adv-x="1052" d="M0 0l227 1436h105q-115 -716 -131 -820q-1 1 159.5 99t321.5 195l160 98h174q-471 -285 -582 -353l375 -655h-125q-317 549 -344 596q-112 -72 -158 -104l-78 -492h-104z" />
<glyph unicode="l" horiz-adv-x="503" d="M66 420l161 1016h103l-162 -1016q-5 -33 -5 -66q0 -68 21 -133q30 -85 101 -147l30 -25l-73 -84l-29 27q-85 70 -127 186q-27 76 -27 157q0 42 7 85z" />
<glyph unicode="m" horiz-adv-x="1669" d="M0 0l158 1008h102q-8 -60 -10 -66q7 3 46.5 18.5t56.5 22t55.5 19t65.5 18.5t63.5 11t70.5 5q137 0 234 -88l6 -6q173 62 255 78q78 16 148 16q163 0 256 -110q76 -90 76 -207q0 -28 -4 -57l-104 -662h-103l105 662q3 22 3 43q0 87 -56 151q-70 80 -189 80 q-154 0 -334 -68q37 -66 37 -150q0 -27 -4 -56l-105 -662h-100l105 662q3 22 3 42q0 86 -57 152q-71 80 -188 80q-60 0 -122 -11.5t-104 -24.5t-106 -36q-14 -5 -22 -8l-136 -856h-102z" />
<glyph unicode="n" horiz-adv-x="1005" d="M0 0l158 1008h102q-8 -60 -10 -66q2 1 29 12t34 14t33.5 13.5t39.5 14.5t38 12t42.5 11.5t41 8t45 6.5t43.5 2q160 0 250 -110q72 -86 72 -202q0 -32 -5 -65l-102 -659h-100l102 659q4 25 4 48q1 83 -53 147q-68 82 -184 82q-87 0 -164 -20.5t-178 -59.5l-136 -856h-102z " />
<glyph unicode="o" horiz-adv-x="1265" d="M80 508q17 107 72.5 204t142.5 171q88 73 192.5 113t210.5 40q107 0 198.5 -39.5t156.5 -113.5q63 -75 89 -172q15 -58 16 -120q0 -41 -7 -83q-36 -223 -217 -375q-183 -153 -404 -153q-106 0 -197.5 39.5t-156.5 113.5q-103 123 -103 285q0 44 7 90zM180 508 q-5 -35 -5 -69q0 -132 85 -232q108 -127 287 -127t325 127q149 124 177 301q5 35 5 69q0 135 -85 232q-108 127 -287 127q-180 0 -326 -127q-72 -61 -118 -139t-58 -162z" />
<glyph unicode="p" horiz-adv-x="1157" d="M-66 -424l224 1432h102l-8 -64q180 92 346 92q219 0 348 -153q103 -123 103 -284q0 -43 -7 -89q-36 -220 -215 -373q-182 -155 -397 -155q-119 0 -231 59q-58 32 -80 74l-84 -539h-101zM139 242q47 -68 117 -113q88 -45 190 -45q174 0 324 125q142 124 170 301q6 37 6 72 q0 131 -82 229q-108 123 -282 123q-90 0 -167.5 -20t-176.5 -58z" />
<glyph unicode="q" horiz-adv-x="1157" d="M80 510q36 220 215 373t397 153q164 0 318 -92l8 64h102l-225 -1432h-102l84 539q-36 -43 -101 -74q-131 -59 -252 -59q-212 0 -348 155q-103 123 -103 284q0 43 7 89zM182 510q-6 -38 -6 -73q0 -132 82 -228q51 -60 124.5 -92.5t158.5 -32.5q100 0 202 45q90 46 154 113 l98 614q-88 39 -158.5 58.5t-160.5 19.5q-179 0 -324 -123q-142 -127 -170 -301z" />
<glyph unicode="r" horiz-adv-x="647" d="M0 0l158 1008h102q-8 -58 -8 -64q63 30 92.5 43t98.5 31t132 18h41l-16 -102h-41q-56 0 -110.5 -10t-85 -20t-95.5 -34q-22 -10 -30 -16l-136 -854h-102z" />
<glyph unicode="s" horiz-adv-x="1015" d="M14 98l52 92q132 -57 214 -81.5t166 -24.5q62 0 130.5 27t124.5 82t67 122q2 14 2 27q0 79 -78 123q-61 27 -180 35q-2 0 -27 2.5t-32.5 3.5t-30 3.5t-35 5t-31 6.5t-34 9t-29.5 11q-61 28 -90 73q-24 41 -24 104q0 15 1 30q16 107 103 182q66 56 135 80q76 28 141 28 q83 0 160 -23.5t196 -76.5l-53 -94q-109 49 -179 70.5t-140 21.5q-49 0 -103 -21t-94 -55q-48 -45 -63 -110v-2q-2 -11 -1 -21q0 -66 66 -92q66 -29 189 -33q149 -15 215 -47q58 -30 90 -76q32 -44 32 -114q0 -24 -4 -52q-14 -98 -100 -184q-63 -66 -156.5 -105.5 t-183.5 -39.5q-97 0 -187.5 26.5t-228.5 87.5z" />
<glyph unicode="t" horiz-adv-x="505" d="M66 420l161 1016h103q-60 -375 -70 -428h135l-14 -103h-135l-78 -485q-6 -37 -6 -71q0 -69 24 -128q25 -82 101 -151l30 -25l-73 -82l-31 27q-88 72 -127 182q-27 79 -27 162q0 42 7 86z" />
<glyph unicode="u" horiz-adv-x="1021" d="M57 362l101 646h102l-100 -646q-4 -24 -4 -47q0 -85 56 -149q70 -82 187 -82q63 0 130 13t107 26.5t114 40.5l133 844h102l-158 -1008h-102q8 58 10 72q-6 -2 -35 -13.5t-39.5 -15.5t-39.5 -14.5t-45 -15t-44 -12t-49.5 -11t-48 -6t-51.5 -2.5h-2h2q-166 3 -254 110 q-77 87 -77 206q0 31 5 64z" />
<glyph unicode="v" horiz-adv-x="1122" d="M158 1008h110q195 -705 224 -818l483 818h110l-630 -1049z" />
<glyph unicode="w" horiz-adv-x="1705" d="M158 1008h110q166 -682 195 -799l446 772q158 -586 209 -772l438 799h113l-590 -1049l-207 766q-282 -479 -454 -762z" />
<glyph unicode="x" horiz-adv-x="1073" d="M0 0q426 487 459 518l-301 490h127q216 -343 247 -402l375 402h129q-425 -457 -450 -490q6 -14 79 -143.5t143 -252.5l69 -122h-127q-211 373 -244 432l-379 -432h-127z" />
<glyph unicode="y" horiz-adv-x="1019" d="M57 367l101 641h104l-100 -641q-4 -25 -4 -49q0 -85 54 -149q70 -81 187 -81q62 0 127.5 12.5t108.5 26t113 39.5l133 842h102l-156 -985q-17 -118 -96 -234q-79 -121 -186 -190l-35 -25l-49 82l37 25q82 55 151 153q61 89 76 189q4 26 8 51q-62 -26 -101.5 -40.5 t-113.5 -32t-137 -17.5q-75 0 -141.5 29t-112.5 83q-75 89 -75 207q0 31 5 64z" />
<glyph unicode="z" horiz-adv-x="1105" d="M0 0q653 692 850 905h-621l15 103h825q-672 -714 -846 -904h643l-16 -104h-850z" />
<glyph unicode="{" horiz-adv-x="493" d="M104 664l17 104h24q20 0 36.5 13t19.5 32l32 197q12 74 39 147.5t49.5 116t67.5 119.5l39 67l94 -39l-41 -69q-44 -77 -62 -110.5t-44 -100.5t-35 -131l-33 -197q-3 -25 -28 -53t-52 -43q23 -14 38 -42.5t11 -53.5l-30 -197q-6 -40 -6.5 -79t1.5 -70t9.5 -68t13.5 -62 t17 -63l16 -70l-102 -37l-19 66q-17 63 -23.5 90.5t-15.5 82t-8 104.5t10 106l31 197q3 19 -9 31t-32 12h-25z" />
<glyph unicode="|" horiz-adv-x="299" d="M-16 -106l260 1646h104l-262 -1646h-102z" />
<glyph unicode="}" horiz-adv-x="493" d="M2 12l41 70q41 70 61.5 108t45.5 104t34 130l31 197q4 25 29.5 53t52.5 43q-23 14 -38.5 42.5t-12.5 53.5l33 197q6 40 6.5 79t-1.5 69t-9.5 68t-13.5 62t-17 64q-1 1 -21 69l107 39l18 -67q17 -63 23.5 -90.5t15.5 -82t8 -104.5t-10 -106l-33 -197q-3 -19 10 -32t33 -13 h25l-17 -104h-24q-21 0 -37.5 -12.5t-19.5 -30.5l-31 -197q-12 -74 -39 -147.5t-49.5 -116t-67.5 -119.5q-19 -29 -39 -66z" />
<glyph unicode="~" horiz-adv-x="1021" d="M59 377l7 41q19 99 94 162q73 61 176 61q58 -1 111 -27.5t88 -70.5q48 -57 114 -66q67 -9 119 33q39 29 49 86l8 43l103 -4l-8 -41q-18 -95 -95 -162q-93 -71 -200 -59q-109 13 -174 96q-52 65 -132 68q-58 0 -102 -35q-40 -32 -49 -86l-10 -43z" />
<glyph unicode="&#xa1;" horiz-adv-x="299" d="M0 0l178 1130h105l-179 -1130h-104zM197 1243l30 193h105l-31 -193h-104z" />
<glyph unicode="&#xa2;" horiz-adv-x="903" d="M80 516q14 83 57.5 160t110.5 135q109 92 244 117l18 108h100q-12 -75 -16 -104q131 -13 213 -92l29 -27l-76 -80l-29 27q-74 71 -186 71q-130 0 -236 -92q-107 -94 -129 -223q-18 -131 58 -223q80 -92 206 -92q110 0 244 94l49 -78l-35 -27q-117 -78 -241 -90l-15 -100 h-100q10 75 16 104q-126 21 -206 117q-101 120 -76 295z" />
<glyph unicode="&#xa3;" horiz-adv-x="1187" d="M0 0l143 913q17 107 73.5 205.5t143.5 173.5q187 158 412 158q74 0 145 -14.5t112 -29.5t114 -46l61 -27l-55 -94l-62 25q-90 40 -163.5 61t-167.5 21q-186 0 -332 -125q-149 -130 -176 -308q-11 -69 -17 -106h533l-16 -102h-533q-4 -27 -48 -303t-48 -302h885l-15 -100 h-989z" />
<glyph unicode="&#xa4;" horiz-adv-x="1583" d="M2 0q256 221 297 258q-79 88 -112 209t-13 252q20 130 91.5 251t180.5 208l-219 258h148q135 -164 160 -195q165 109 372 109q202 0 338 -109l225 195h146q-258 -223 -301 -260q168 -198 125 -457q-41 -255 -273 -461l222 -258h-146q-139 164 -164 195 q-177 -109 -372 -109q-130 0 -240 49q-43 20 -98 58l-222 -193h-145zM276 719q-35 -217 97 -375q59 -71 149 -115q93 -41 201 -41q216 0 399 156q180 160 215 375q17 101 -9 200.5t-87 172.5q-61 75 -152.5 115t-197.5 40q-142 0 -275.5 -70.5t-225 -192.5t-114.5 -265z" />
<glyph unicode="&#xa5;" horiz-adv-x="1345" d="M225 1434h125q315 -578 350 -639l549 639h127q-631 -732 -643 -748q-15 -91 -16 -98h184l-16 -105h-185q-7 -56 -14 -84h184l-16 -102h-184l-45 -297h-103q39 246 45 297h-182l16 102h183q7 28 14 84h-182l16 105h182l17 102z" />
<glyph unicode="&#xa6;" horiz-adv-x="299" d="M-16 -104l102 659h104l-104 -659h-102zM139 881l105 659h104l-104 -659h-105z" />
<glyph unicode="&#xa7;" horiz-adv-x="1036" d="M14 98l56 99l34 -17q101 -46 183.5 -70t167.5 -24q66 0 137 29t126 84.5t66 122.5q18 106 -77 151q-62 30 -185 39q-145 9 -223 41q-137 61 -113 219q9 56 43.5 110.5t85.5 90.5q-25 17 -43 45q-41 70 -16.5 163.5t96.5 159.5q57 51 136 81t151 30q81 0 153.5 -21.5 t172.5 -64.5l36 -16l-53 -95l-37 17q-68 28 -101 40t-86.5 25t-100.5 13q-53 0 -109 -22t-96 -58q-66 -57 -66 -128t68 -102q51 -24 190 -34q72 -5 132 -21t115.5 -48t82 -89.5t14.5 -134.5q-17 -111 -112 -203q31 -34 43.5 -84.5t3.5 -103.5q-15 -96 -87.5 -175.5 t-170 -121t-193.5 -41.5q-98 -1 -186 24t-201 76zM289 772q-10 -41 7.5 -73.5t57.5 -49.5q57 -24 193 -33q143 -13 215 -49q77 70 90 146q26 170 -264 190q-99 4 -168 23q-49 -25 -86.5 -67t-44.5 -87z" />
<glyph unicode="&#xa8;" horiz-adv-x="292" d="M199 1266l32 196h76l-33 -196h-75zM332 1266l33 196h73l-32 -196h-74z" />
<glyph unicode="&#xa9;" horiz-adv-x="1662" d="M113 717q34 219 187.5 407t367.5 271q148 57 297 57q197 0 350 -100t225 -269.5t41 -365.5t-157 -365.5t-311 -269.5t-382 -100q-295 0 -485 215q-89 104 -122.5 237.5t-10.5 282.5zM215 717q-20 -125 9 -242.5t104 -204.5q77 -89 185.5 -137.5t234.5 -48.5 q169 0 328 86.5t267.5 232.5t135.5 314q26 168 -36 314t-194 232.5t-301 86.5q-127 0 -256 -52q-187 -79 -317 -235t-160 -346zM416 721q19 122 100 231t199.5 173.5t240.5 60.5q97 0 160 -29t146 -102l-76 -78q-41 49 -106.5 77.5t-139.5 28.5q-150 0 -273.5 -106 t-148.5 -256q-23 -151 67 -259t240 -108q122 0 275 107l51 -78l-35 -27q-145 -102 -307 -102q-125 0 -222.5 63.5t-143.5 171t-27 232.5z" />
<glyph unicode="&#xaa;" horiz-adv-x="684" d="M186 1186q19 111 109.5 189.5t200.5 78.5q12 0 24 -0.5t23.5 -2.5t20 -3.5t20.5 -5t18 -5t18.5 -6.5t16 -6.5t17.5 -7t16 -6.5l39 -18l-72 -459h-98q6 37 6 45q-2 -2 -4 -2q-20 -23 -58.5 -40t-70.5 -17q-110 0 -176.5 78.5t-49.5 187.5zM285 1186q-11 -69 30.5 -118.5 t110.5 -49.5q40 0 80 18q29 13 53 37q2 11 20.5 125.5t20.5 128.5q-77 29 -121 29q-69 0 -126.5 -50t-67.5 -120z" />
<glyph unicode="&#xab;" horiz-adv-x="907" d="M80 510l461 272l-19 -120q-193 -115 -254 -152l205 -150l-18 -122zM375 510l461 272l-19 -120q-193 -115 -254 -152l205 -150l-18 -122z" />
<glyph unicode="&#xac;" horiz-adv-x="768" d="M80 510l16 100h574l-33 -200h-92l16 100h-481z" />
<glyph unicode="&#xad;" horiz-adv-x="765" d="M72 461l16 104h571l-16 -104h-571z" />
<glyph unicode="&#xae;" horiz-adv-x="1662" d="M113 717q34 218 187.5 406.5t367.5 269.5q148 57 297 57q147 0 273 -59t209 -157.5t120 -234t14 -282.5q-31 -197 -157 -366.5t-311 -269t-382 -99.5q-147 0 -276 57q-189 88 -283 273.5t-59 404.5zM217 717q-30 -190 49.5 -351t243.5 -231q104 -49 238 -49q169 0 328 85 t267.5 230.5t135.5 315.5q26 168 -36.5 313.5t-194.5 231.5t-300 86q-133 0 -254 -50q-187 -75 -317.5 -234t-159.5 -347zM485 264l144 912h342q119 0 190 -83.5t51 -201.5q-14 -91 -82 -167.5t-161 -102.5l182 -355l-121 -2q-162 319 -174 344h-215l-55 -344h-101zM655 709 h242q75 -1 139.5 53.5t75.5 128.5q12 76 -33.5 130t-122.5 54h-241q-5 -25 -31.5 -188.5t-28.5 -177.5z" />
<glyph unicode="&#xaf;" horiz-adv-x="397" d="M219 1386l12 76h295l-12 -76h-295z" />
<glyph unicode="&#xb0;" horiz-adv-x="446" d="M209 1323q7 52 50.5 89.5t94.5 37.5q52 0 83.5 -37t23.5 -90q-9 -52 -52 -88.5t-96 -36.5q-51 0 -82 36.5t-22 88.5zM272 1323q-4 -26 11.5 -43.5t40.5 -17.5q26 0 46 17.5t25 43.5q4 26 -10.5 43.5t-40.5 17.5q-25 0 -46.5 -17.5t-25.5 -43.5z" />
<glyph unicode="&#xb1;" horiz-adv-x="768" d="M20 131l17 105h571l-16 -105h-572zM82 526l16 107h234l39 235h104q-31 -190 -39 -235h236l-17 -107h-235l-37 -233h-104q30 188 36 233h-233z" />
<glyph unicode="&#xb2;" horiz-adv-x="649" d="M115 735q392 436 391 436q37 45 43 89q6 38 -16 65t-60 27q-46 0 -113 -25l-41 -14l-22 92l41 14q82 33 151 33q78 0 125 -56.5t35 -135.5q-13 -76 -69 -144q-5 -6 -48.5 -48.5t-109 -109.5t-115.5 -124h279l-17 -99h-454z" />
<glyph unicode="&#xb3;" horiz-adv-x="628" d="M123 776l53 92l35 -14q68 -31 127 -31q52 0 94 36t51 89q7 51 -22 84q-29 37 -82 37h-41l16 98h31q38 0 69.5 28.5t37.5 68.5q6 39 -16 66.5t-60 27.5q-43 0 -119 -27l-41 -14l-20 94l40 12q87 35 154 35q79 0 126.5 -57t35.5 -137q-6 -37 -35 -76.5t-61 -59.5 q35 -10 47 -24q54 -60 41 -156q-15 -94 -91.5 -159.5t-170.5 -65.5q-66 0 -164 39z" />
<glyph unicode="&#xb4;" horiz-adv-x="380" d="M201 1268l225 194h92l-225 -194h-92z" />
<glyph unicode="&#xb6;" horiz-adv-x="1216" d="M162 1026q26 170 165.5 290t309.5 120h317l-131 -815h-317q-112 0 -197.5 53.5t-125 146.5t-21.5 205zM770 0l227 1436h105l-228 -1436h-104zM918 0l227 1436h104l-227 -1436h-104z" />
<glyph unicode="&#xb7;" horiz-adv-x="186" d="M68 434l24 154h84l-24 -154h-84z" />
<glyph unicode="&#xb8;" horiz-adv-x="317" d="M-41 -268l47 51q27 -27 49 -27q24 0 42.5 16t21.5 40q3 22 -10 36.5t-37 14.5h-17l23 137h49q-10 -62 -14 -78q40 -9 51 -28q27 -31 20 -82q-8 -50 -48 -85.5t-91 -35.5q-42 0 -86 41z" />
<glyph unicode="&#xb9;" horiz-adv-x="378" d="M199 729q84 532 96 604l-45 -30l-31 83l197 78l-117 -735h-100z" />
<glyph unicode="&#xba;" horiz-adv-x="743" d="M188 1192q17 112 110.5 192t207.5 80t181 -79.5t50 -192.5q-19 -114 -112 -195.5t-207 -81.5t-181.5 81.5t-48.5 195.5zM287 1192q-12 -73 31.5 -124.5t115.5 -51.5t131.5 51.5t71.5 124.5q11 72 -32.5 123t-115.5 51t-132 -51t-70 -123z" />
<glyph unicode="&#xbb;" horiz-adv-x="907" d="M37 238l18 122q193 113 254 150l-205 152l19 120l375 -272zM332 238l18 122q193 113 254 150l-205 152l19 120l375 -272z" />
<glyph unicode="&#xbc;" horiz-adv-x="978" d="M2 0h23h-23zM2 0h104l752 1436h-106zM199 729q84 532 96 604l-45 -30l-31 83l197 78l-117 -735h-100zM299 182l522 537q-61 -392 -69 -443h75l-14 -94h-76l-28 -182h-97q21 139 29 182h-342zM514 276h141q2 15 12 75t15 98q-142 -148 -168 -173z" />
<glyph unicode="&#xbd;" horiz-adv-x="997" d="M0 0h111l751 1436h-106zM203 729q84 532 96 604l-45 -30l-31 83l197 78l-117 -735h-100zM348 0q57 65 214 239l175 197q36 41 43 88q6 39 -15.5 65.5t-59.5 26.5q-45 0 -113 -24l-41 -14l-23 92l41 14q82 33 152 33q78 0 125 -56.5t35 -136.5q-12 -73 -70 -143 q-4 -7 -47 -49t-109 -109.5t-116 -124.5h278l-14 -98h-455z" />
<glyph unicode="&#xbe;" horiz-adv-x="1153" d="M123 776l53 92l35 -14q68 -31 127 -31q52 0 94 36t51 89q7 51 -22 84q-29 37 -82 37h-41l16 98h31q38 0 69.5 28.5t37.5 68.5q6 39 -16 66.5t-60 27.5q-43 0 -119 -27l-41 -14l-20 94l40 12q87 35 154 35q79 0 126.5 -57t35.5 -137q-6 -37 -35 -76.5t-61 -59.5 q35 -10 47 -24q54 -60 41 -156q-15 -94 -91.5 -159.5t-170.5 -65.5q-66 0 -164 39zM182 0h99l751 1436h-106zM473 182l522 537q-61 -392 -69 -443h75l-14 -94h-76l-28 -182h-97q21 139 29 182h-342zM688 276h141q2 15 12 75t15 98q-143 -148 -168 -173z" />
<glyph unicode="&#xbf;" horiz-adv-x="997" d="M63 412q28 173 170 297q119 102 279 102l51 315h103l-64 -399h-67q-134 0 -240 -92q-106 -87 -129 -223q-19 -140 59 -230q76 -94 209 -94q119 0 318 70l39 16l24 -94l-43 -17q-201 -77 -354 -77q-175 0 -279 125q-104 122 -76 301zM584 1243l30 193h101l-31 -193h-100z " />
<glyph unicode="&#xc0;" horiz-adv-x="1464" d="M0 0l866 1464l404 -1464h-111q-143 512 -151 547h-574l-323 -547h-111zM494 647h487q-40 141 -156 561q-15 -25 -97 -163t-150.5 -255t-83.5 -143zM762 1710h92l164 -194h-92z" />
<glyph unicode="&#xc1;" horiz-adv-x="1464" d="M0 0l866 1464l404 -1464h-111q-143 512 -151 547h-574l-323 -547h-111zM494 647h487q-40 141 -156 561q-15 -25 -97 -163t-150.5 -255t-83.5 -143zM731 1516l225 194h93l-226 -194h-92z" />
<glyph unicode="&#xc2;" horiz-adv-x="1464" d="M0 0l866 1464l404 -1464h-111q-143 512 -151 547h-574l-323 -547h-111zM494 647h487q-40 141 -156 561q-15 -25 -97 -163t-150.5 -255t-83.5 -143zM698 1516l207 204l142 -204h-86q-58 92 -72 110l-105 -110h-86z" />
<glyph unicode="&#xc3;" horiz-adv-x="1464" d="M0 0l866 1464l404 -1464h-111q-143 512 -151 547h-574l-323 -547h-111zM494 647h487q-40 141 -156 561q-15 -25 -97 -163t-150.5 -255t-83.5 -143zM688 1638l72 13q0 -38 14 -52q17 -14 42.5 -10t45.5 25q41 41 95.5 45t89.5 -29q31 -28 34 -96l-75 -12q1 17 -1 27.5 t-4 13t-8 8.5q-13 15 -40.5 11.5t-47.5 -23.5q-39 -41 -93 -45.5t-87 28.5q-34 27 -37 96z" />
<glyph unicode="&#xc4;" horiz-adv-x="1464" d="M0 0l866 1464l404 -1464h-111q-143 512 -151 547h-574l-323 -547h-111zM494 647h487q-40 141 -156 561q-15 -25 -97 -163t-150.5 -255t-83.5 -143zM770 1516l33 196h76l-33 -196h-76zM903 1516l33 196h74l-33 -196h-74z" />
<glyph unicode="&#xc5;" horiz-adv-x="1464" d="M0 0l866 1464l404 -1464h-111q-143 512 -151 547h-574l-323 -547h-111zM494 647h487q-40 141 -156 561q-15 -25 -97 -163t-150.5 -255t-83.5 -143zM791 1616q6 40 40 69t74 29t65 -29t19 -69q-6 -41 -41.5 -70.5t-75.5 -29.5t-63.5 29.5t-17.5 70.5zM852 1614 q-3 -15 6.5 -27t24.5 -12t28.5 12t16.5 27q2 15 -8 26t-25 11t-28.5 -11t-14.5 -26z" />
<glyph unicode="&#xc6;" horiz-adv-x="1949" d="M0 0l1130 1432l3 4h849l-16 -103h-747l-84 -526h510l-17 -102h-510l-96 -603h747l-14 -102h-850l111 705h-340l-555 -705h-121zM758 807h274l68 432z" />
<glyph unicode="&#xc7;" horiz-adv-x="1441" d="M113 717q23 146 101 282t198 240q121 104 267.5 159.5t293.5 55.5q129 0 244.5 -42.5t199.5 -123.5l29 -26l-78 -80l-29 26q-157 144 -383 144q-126 0 -253.5 -49t-227.5 -138q-104 -89 -171 -205.5t-87 -242.5q-20 -128 9.5 -244t105.5 -207q74 -88 185.5 -136 t238.5 -48q227 0 422 139l36 25l52 -80l-37 -27q-109 -76 -235 -119t-249 -43l-8 -51q39 -14 49 -30q28 -31 21 -80q-7 -51 -48 -87t-91 -36q-42 0 -90 43l49 49q29 -27 51 -27q23 0 41.5 16.5t21.5 41.5q3 21 -10 35t-37 14h-18l18 115q-131 7 -248.5 63.5t-199.5 149.5 q-182 223 -133 524z" />
<glyph unicode="&#xc8;" horiz-adv-x="1046" d="M0 0l227 1436h852l-16 -103h-750l-42 -262.5t-42 -263.5h510l-16 -105h-510q-85 -541 -96 -600h749l-14 -102h-852zM580 1710h92l164 -194h-93z" />
<glyph unicode="&#xc9;" horiz-adv-x="1046" d="M0 0l227 1436h852l-16 -103h-750l-42 -262.5t-42 -263.5h510l-16 -105h-510q-85 -541 -96 -600h749l-14 -102h-852zM545 1516l225 194h92l-225 -194h-92z" />
<glyph unicode="&#xca;" horiz-adv-x="1046" d="M0 0l227 1436h852l-16 -103h-750l-42 -262.5t-42 -263.5h510l-16 -105h-510q-85 -541 -96 -600h749l-14 -102h-852zM496 1516l206 204l142 -204h-86q-58 92 -72 110l-104 -110h-86z" />
<glyph unicode="&#xcb;" horiz-adv-x="1046" d="M0 0l227 1436h852l-16 -103h-750l-42 -262.5t-42 -263.5h510l-16 -105h-510q-85 -541 -96 -600h749l-14 -102h-852zM580 1516l32 196h76l-33 -196h-75zM713 1516l32 196h74l-33 -196h-73z" />
<glyph unicode="&#xcc;" horiz-adv-x="339" d="M37 0l227 1436h105l-228 -1436h-104zM219 1710h92l164 -194h-92z" />
<glyph unicode="&#xcd;" horiz-adv-x="339" d="M35 0l227 1436h105l-228 -1436h-104zM188 1522l226 194h92l-225 -194h-93z" />
<glyph unicode="&#xce;" horiz-adv-x="393" d="M61 0l228 1436h104l-227 -1436h-105zM184 1516l207 204l141 -204h-86q-57 92 -71 110l-105 -110h-86z" />
<glyph unicode="&#xcf;" horiz-adv-x="251" d="M-8 0l227 1436h105l-228 -1436h-104zM184 1524l33 196h76l-33 -196h-76zM317 1524l33 196h74l-33 -196h-74z" />
<glyph unicode="&#xd0;" horiz-adv-x="1454" d="M78 0q102 647 110 702h-77l16 103h78l100 631h461q299 0 477 -211q175 -219 129 -510q-23 -141 -98.5 -273t-192.5 -237q-245 -208 -542 -205h-461zM195 102h358q251 -6 467 177q99 86 164.5 200t85.5 236q19 123 -9.5 238.5t-101.5 199.5q-151 180 -409 180h-359 q-4 -25 -42 -263.5t-42 -264.5h195l-17 -103h-194q-69 -456 -96 -600z" />
<glyph unicode="&#xd1;" horiz-adv-x="1273" d="M0 0l231 1466q709 -1095 787 -1218l188 1188h101l-236 -1475q-706 1098 -780 1219l-187 -1180h-104zM604 1638l72 13q0 -38 14 -52q17 -14 42.5 -10t45.5 25q41 41 95.5 45t89.5 -29q31 -28 34 -96l-75 -12q1 17 -1 27.5t-4 13t-8 8.5q-13 15 -40.5 11.5t-47.5 -23.5 q-39 -41 -93 -45.5t-87 28.5q-34 27 -37 96z" />
<glyph unicode="&#xd2;" horiz-adv-x="1671" d="M113 717q24 149 102 287q76 131 195.5 233.5t261.5 161.5q148 57 295 57t273 -56t214 -161q89 -104 123.5 -238t11.5 -284q-23 -148 -100.5 -282.5t-198.5 -239.5q-121 -104 -265 -159.5t-292 -55.5q-220 0 -387 123t-221 327q-36 139 -12 287zM217 717q-21 -128 10 -248 q42 -172 189.5 -279.5t333.5 -107.5q126 0 251 48.5t228 137.5q215 190 256 449q20 126 -10 242t-103 208q-77 88 -186 136.5t-236 48.5q-128 0 -256 -49q-121 -51 -223.5 -138.5t-165.5 -199.5q-66 -115 -88 -248zM870 1710h93l163 -194h-92z" />
<glyph unicode="&#xd3;" horiz-adv-x="1671" d="M113 717q24 149 102 287q76 131 195.5 233.5t261.5 161.5q148 57 295 57t273 -56t214 -161q89 -104 123.5 -238t11.5 -284q-23 -148 -100.5 -282.5t-198.5 -239.5q-121 -104 -265 -159.5t-292 -55.5q-220 0 -387 123t-221 327q-36 139 -12 287zM217 717q-21 -128 10 -248 q42 -172 189.5 -279.5t333.5 -107.5q126 0 251 48.5t228 137.5q215 190 256 449q20 126 -10 242t-103 208q-77 88 -186 136.5t-236 48.5q-128 0 -256 -49q-121 -51 -223.5 -138.5t-165.5 -199.5q-66 -115 -88 -248zM842 1516l225 194h92l-225 -194h-92z" />
<glyph unicode="&#xd4;" horiz-adv-x="1671" d="M113 717q24 149 102 287q76 131 195.5 233.5t261.5 161.5q148 57 295 57t273 -56t214 -161q89 -104 123.5 -238t11.5 -284q-23 -148 -100.5 -282.5t-198.5 -239.5q-121 -104 -265 -159.5t-292 -55.5q-220 0 -387 123t-221 327q-36 139 -12 287zM217 717q-21 -128 10 -248 q42 -172 189.5 -279.5t333.5 -107.5q126 0 251 48.5t228 137.5q215 190 256 449q20 126 -10 242t-103 208q-77 88 -186 136.5t-236 48.5q-128 0 -256 -49q-121 -51 -223.5 -138.5t-165.5 -199.5q-66 -115 -88 -248zM809 1516l207 204l141 -204h-86q-58 92 -72 110l-104 -110 h-86z" />
<glyph unicode="&#xd5;" horiz-adv-x="1671" d="M113 717q24 149 102 287q76 131 195.5 233.5t261.5 161.5q148 57 295 57t273 -56t214 -161q89 -104 123.5 -238t11.5 -284q-23 -148 -100.5 -282.5t-198.5 -239.5q-121 -104 -265 -159.5t-292 -55.5q-220 0 -387 123t-221 327q-36 139 -12 287zM217 717q-21 -128 10 -248 q42 -172 189.5 -279.5t333.5 -107.5q126 0 251 48.5t228 137.5q215 190 256 449q20 126 -10 242t-103 208q-77 88 -186 136.5t-236 48.5q-128 0 -256 -49q-121 -51 -223.5 -138.5t-165.5 -199.5q-66 -115 -88 -248zM801 1638l71 13q0 -37 15 -52q17 -14 42.5 -10t45.5 25 q41 41 95 45t89 -29q32 -29 35 -96l-76 -12q2 35 -12 49q-13 15 -40.5 11.5t-47.5 -23.5q-39 -41 -93 -45.5t-87 28.5q-34 27 -37 96z" />
<glyph unicode="&#xd6;" horiz-adv-x="1671" d="M113 717q24 149 102 287q76 131 195.5 233.5t261.5 161.5q148 57 295 57t273 -56t214 -161q89 -104 123.5 -238t11.5 -284q-23 -148 -100.5 -282.5t-198.5 -239.5q-121 -104 -265 -159.5t-292 -55.5q-220 0 -387 123t-221 327q-36 139 -12 287zM217 717q-21 -128 10 -248 q42 -172 189.5 -279.5t333.5 -107.5q126 0 251 48.5t228 137.5q215 190 256 449q20 126 -10 242t-103 208q-77 88 -186 136.5t-236 48.5q-128 0 -256 -49q-121 -51 -223.5 -138.5t-165.5 -199.5q-66 -115 -88 -248zM883 1516l32 196h76l-33 -196h-75zM1016 1516l33 196h73 l-32 -196h-74z" />
<glyph unicode="&#xd7;" horiz-adv-x="763" d="M43 274q213 199 250 234l-176 235l86 70q143 -188 174 -227l241 227l68 -70q-217 -200 -252 -235l178 -234l-90 -69q-141 188 -170 225l-246 -225z" />
<glyph unicode="&#xd8;" horiz-adv-x="1669" d="M59 0q32 33 110.5 110.5t80.5 79.5q0 5 -2 5q-86 101 -122 239.5t-13 280.5q23 144 101.5 281t197.5 239q117 101 265 159.5t288 57.5q241 0 419 -145q23 23 73.5 74.5t53.5 54.5h138q-25 -24 -63 -62t-80.5 -81t-55.5 -56l2 -2q86 -103 122 -240.5t13 -279.5 q-23 -143 -102.5 -281t-196.5 -239q-120 -103 -266 -159t-291 -56q-114 0 -224 37.5t-188 105.5q-23 -23 -73 -72.5t-51 -50.5h-136zM217 715q-20 -121 10.5 -239.5t102.5 -205.5q21 19 467.5 458.5t505.5 498.5q-151 123 -355 123q-120 0 -246 -50.5t-229 -136.5 q-101 -88 -168.5 -205.5t-87.5 -242.5zM399 203q69 -57 162 -89t187 -32q124 0 250 49t227 137t169.5 206t88.5 241q19 122 -12 239.5t-103 204.5q-28 -31 -473 -469.5t-496 -486.5z" />
<glyph unicode="&#xd9;" horiz-adv-x="1271" d="M82 524l145 912h103l-146 -912q-28 -189 78 -313q104 -129 287 -129t330 129q151 132 178 313l145 912h103l-146 -912q-17 -111 -73.5 -211t-145.5 -176q-190 -160 -408 -160q-107 0 -200 41.5t-156 118.5q-63 76 -87 176.5t-7 210.5zM670 1710h92l164 -194h-92z" />
<glyph unicode="&#xda;" horiz-adv-x="1271" d="M82 524l145 912h103l-146 -912q-28 -189 78 -313q104 -129 287 -129t330 129q151 132 178 313l145 912h103l-146 -912q-17 -111 -73.5 -211t-145.5 -176q-190 -160 -408 -160q-107 0 -200 41.5t-156 118.5q-63 76 -87 176.5t-7 210.5zM641 1516l225 194h92l-225 -194h-92 z" />
<glyph unicode="&#xdb;" horiz-adv-x="1271" d="M82 524l145 912h103l-146 -912q-28 -189 78 -313q104 -129 287 -129t330 129q151 132 178 313l145 912h103l-146 -912q-17 -111 -73.5 -211t-145.5 -176q-190 -160 -408 -160q-107 0 -200 41.5t-156 118.5q-63 76 -87 176.5t-7 210.5zM604 1516l207 204l141 -204h-86 q-57 92 -71 110l-105 -110h-86z" />
<glyph unicode="&#xdc;" horiz-adv-x="1271" d="M82 524l145 912h103l-146 -912q-28 -189 78 -313q104 -129 287 -129t330 129q151 132 178 313l145 912h103l-146 -912q-17 -111 -73.5 -211t-145.5 -176q-190 -160 -408 -160q-107 0 -200 41.5t-156 118.5q-63 76 -87 176.5t-7 210.5zM688 1516l33 196h76l-33 -196h-76z M821 1516l33 196h74l-33 -196h-74z" />
<glyph unicode="&#xdd;" horiz-adv-x="1345" d="M227 1436h125q313 -576 348 -639l553 639h125q-631 -732 -645 -748l-108 -688h-103q107 674 109 692zM676 1516l225 194h92l-225 -194h-92z" />
<glyph unicode="&#xde;" horiz-adv-x="1165" d="M0 0l227 1436h103q-37 -232 -45 -281h432q179 0 287 -127q107 -125 79 -309q-28 -181 -178 -307q-147 -125 -325 -125h-433l-45 -287h-102zM164 389h432q140 0 250 96q113 96 135 234q22 139 -61 235q-82 101 -220 101h-432q-4 -31 -52.5 -338.5t-51.5 -327.5z" />
<glyph unicode="&#xdf;" horiz-adv-x="1026" d="M0 0l217 1372l51 23q51 20 81.5 30t78.5 19.5t96 9.5q146 0 234 -104t65 -250q-32 -189 -207 -279q104 -19 187 -112q117 -142 86 -338q-20 -126 -101.5 -237t-202 -177t-247.5 -63h-43l16 104h43q99 -2 194 49.5t159 138.5t79 185q24 152 -67 264q-93 110 -246 110h-61 l16 103q103 0 189.5 74t103.5 178q15 103 -47.5 177.5t-165.5 74.5q-87 0 -197 -45l-207 -1307h-104z" />
<glyph unicode="&#xe0;" d="M80 506q36 223 213 377q183 153 403 153q62 0 123.5 -15t100 -32t92.5 -45l8 64h104l-157 -1008h-105l17 113q-40 -49 -103 -76q-123 -57 -248 -57q-107 0 -198 39.5t-156 113.5q-129 161 -94 373zM180 506q-28 -175 78 -299q108 -127 287 -127q102 0 198 47 q88 42 156 113l98 614q-61 27 -98 41.5t-97.5 27.5t-121.5 13q-180 0 -326 -127q-147 -125 -174 -303zM618 1436h93l163 -195h-92z" />
<glyph unicode="&#xe1;" d="M80 506q36 223 213 377q183 153 403 153q62 0 123.5 -15t100 -32t92.5 -45l8 64h104l-157 -1008h-105l17 113q-40 -49 -103 -76q-123 -57 -248 -57q-107 0 -198 39.5t-156 113.5q-129 161 -94 373zM180 506q-28 -175 78 -299q108 -127 287 -127q102 0 198 47 q88 42 156 113l98 614q-61 27 -98 41.5t-97.5 27.5t-121.5 13q-180 0 -326 -127q-147 -125 -174 -303zM594 1241l225 195h92l-225 -195h-92z" />
<glyph unicode="&#xe2;" d="M80 506q36 223 213 377q183 153 403 153q62 0 123.5 -15t100 -32t92.5 -45l8 64h104l-157 -1008h-105l17 113q-40 -49 -103 -76q-123 -57 -248 -57q-107 0 -198 39.5t-156 113.5q-129 161 -94 373zM180 506q-28 -175 78 -299q108 -127 287 -127q102 0 198 47 q88 42 156 113l98 614q-61 27 -98 41.5t-97.5 27.5t-121.5 13q-180 0 -326 -127q-147 -125 -174 -303zM563 1231l207 205l141 -205h-86q-57 92 -71 110l-105 -110h-86z" />
<glyph unicode="&#xe3;" d="M80 506q36 223 213 377q183 153 403 153q62 0 123.5 -15t100 -32t92.5 -45l8 64h104l-157 -1008h-105l17 113q-40 -49 -103 -76q-123 -57 -248 -57q-107 0 -198 39.5t-156 113.5q-129 161 -94 373zM180 506q-28 -175 78 -299q108 -127 287 -127q102 0 198 47 q88 42 156 113l98 614q-61 27 -98 41.5t-97.5 27.5t-121.5 13q-180 0 -326 -127q-147 -125 -174 -303zM545 1417l71 13q0 -37 15 -52q17 -14 42.5 -10t45.5 25q41 41 95 45t89 -29q32 -29 35 -96l-76 -13q2 36 -12 50q-13 15 -40.5 11t-47.5 -24q-39 -41 -93 -45t-87 29 q-34 27 -37 96z" />
<glyph unicode="&#xe4;" d="M80 506q36 223 213 377q183 153 403 153q62 0 123.5 -15t100 -32t92.5 -45l8 64h104l-157 -1008h-105l17 113q-40 -49 -103 -76q-123 -57 -248 -57q-107 0 -198 39.5t-156 113.5q-129 161 -94 373zM180 506q-28 -175 78 -299q108 -127 287 -127q102 0 198 47 q88 42 156 113l98 614q-61 27 -98 41.5t-97.5 27.5t-121.5 13q-180 0 -326 -127q-147 -125 -174 -303zM627 1237l32 197h76l-33 -197h-75zM760 1237l33 197h73l-32 -197h-74z" />
<glyph unicode="&#xe5;" d="M80 506q36 223 213 377q183 153 403 153q62 0 123.5 -15t100 -32t92.5 -45l8 64h104l-157 -1008h-105l17 113q-40 -49 -103 -76q-123 -57 -248 -57q-107 0 -198 39.5t-156 113.5q-129 161 -94 373zM180 506q-28 -175 78 -299q108 -127 287 -127q102 0 198 47 q88 42 156 113l98 614q-61 27 -98 41.5t-97.5 27.5t-121.5 13q-180 0 -326 -127q-147 -125 -174 -303zM647 1337q6 40 40.5 69.5t74.5 29.5t65 -29.5t19 -69.5q-6 -41 -41.5 -70.5t-75.5 -29.5t-64 29.5t-18 70.5zM709 1335q-3 -15 6 -27t24 -12t28.5 12t16.5 27 q2 15 -7.5 26t-24.5 11t-28.5 -11t-14.5 -26z" />
<glyph unicode="&#xe6;" horiz-adv-x="1955" d="M80 506q22 144 114 266t226.5 193t277.5 71q156 0 367 -88q71 39 143 62q85 26 183 26q104 0 195.5 -42.5t153 -113t90 -169t11.5 -205.5l-8 -49h-789q-21 -121 -34 -221q39 -72 109 -114t155 -42q82 0 157 23.5t216 84.5l26 -94q-28 -10 -106 -40.5t-111.5 -41.5 t-90.5 -23t-108 -12q-157 0 -272 109l-12 -86h-101q9 63 15 94q-168 -117 -357 -117q-107 0 -198 40.5t-156 115.5q-63 75 -88 172t-8 201zM182 506q-28 -175 76 -301q107 -125 289 -125q96 0 192.5 42t169.5 116q1 9 24 153.5t48 298t27 166.5q-62 26 -100.5 39.5 t-100.5 26t-125 12.5q-178 0 -325 -125t-175 -303zM1061 559h682q10 157 -100 266t-269 109q-70 0 -151 -23q-53 -16 -115 -49q0 -2 -21.5 -139t-25.5 -164z" />
<glyph unicode="&#xe7;" horiz-adv-x="1095" d="M80 508q17 107 75 205t141 168.5t188 112.5t212 42q189 0 316 -118l28 -27l-77 -78l-27 25q-110 96 -256 96q-176 0 -324 -125t-176 -301q-14 -87 8.5 -166t72 -136t124 -90.5t160.5 -33.5q151 0 282 92l37 27l51 -80l-36 -25q-152 -109 -336 -116l-8 -54q39 -14 49 -30 q25 -28 18 -80q-8 -50 -48 -85.5t-89 -35.5q-42 0 -88 41l49 49q29 -27 49 -27q23 0 42 17.5t22 40.5q3 22 -10 36.5t-37 14.5h-17l19 115q-133 4 -236.5 78.5t-151 194.5t-26.5 253z" />
<glyph unicode="&#xe8;" horiz-adv-x="1259" d="M80 508q17 107 72.5 203.5t142.5 169.5q86 75 190 115t211 40q220 0 353 -155q62 -74 87.5 -171t8.5 -202l-8 -49h-961q-3 -146 84 -250q104 -125 285 -125q63 0 129.5 13t110 27t112.5 40l70 26l22 -94l-31 -10l-38 -16q-85 -31 -126.5 -44.5t-117 -28.5t-148.5 -15 q-107 0 -198 39.5t-154 113.5q-63 75 -88 172t-8 201zM193 559h856q3 148 -84 252q-110 123 -285 123q-178 0 -326 -123q-118 -103 -161 -252zM618 1436h93l163 -195h-92z" />
<glyph unicode="&#xe9;" horiz-adv-x="1259" d="M80 508q17 107 72.5 203.5t142.5 169.5q86 75 190 115t211 40q220 0 353 -155q62 -74 87.5 -171t8.5 -202l-8 -49h-961q-3 -146 84 -250q104 -125 285 -125q63 0 129.5 13t110 27t112.5 40l70 26l22 -94l-31 -10l-38 -16q-85 -31 -126.5 -44.5t-117 -28.5t-148.5 -15 q-107 0 -198 39.5t-154 113.5q-63 75 -88 172t-8 201zM193 559h856q3 148 -84 252q-110 123 -285 123q-178 0 -326 -123q-118 -103 -161 -252zM598 1241l225 195h92l-225 -195h-92z" />
<glyph unicode="&#xea;" horiz-adv-x="1259" d="M80 508q17 107 72.5 203.5t142.5 169.5q86 75 190 115t211 40q220 0 353 -155q62 -74 87.5 -171t8.5 -202l-8 -49h-961q-3 -146 84 -250q104 -125 285 -125q63 0 129.5 13t110 27t112.5 40l70 26l22 -94l-31 -10l-38 -16q-85 -31 -126.5 -44.5t-117 -28.5t-148.5 -15 q-107 0 -198 39.5t-154 113.5q-63 75 -88 172t-8 201zM193 559h856q3 148 -84 252q-110 123 -285 123q-178 0 -326 -123q-118 -103 -161 -252zM569 1233l207 205l142 -205h-87q-57 92 -71 110l-105 -110h-86z" />
<glyph unicode="&#xeb;" horiz-adv-x="1259" d="M80 508q17 107 72.5 203.5t142.5 169.5q86 75 190 115t211 40q220 0 353 -155q62 -74 87.5 -171t8.5 -202l-8 -49h-961q-3 -146 84 -250q104 -125 285 -125q63 0 129.5 13t110 27t112.5 40l70 26l22 -94l-31 -10l-38 -16q-85 -31 -126.5 -44.5t-117 -28.5t-148.5 -15 q-107 0 -198 39.5t-154 113.5q-63 75 -88 172t-8 201zM193 559h856q3 148 -84 252q-110 123 -285 123q-178 0 -326 -123q-118 -103 -161 -252zM633 1239l33 197h75l-32 -197h-76zM766 1239l33 197h73l-32 -197h-74z" />
<glyph unicode="&#xec;" horiz-adv-x="339" d="M37 0l158 1006h104l-158 -1006h-104zM172 1436h92l164 -195h-92z" />
<glyph unicode="&#xed;" horiz-adv-x="339" d="M33 0l157 1006h105l-158 -1006h-104zM141 1241l226 195h92l-226 -195h-92z" />
<glyph unicode="&#xee;" horiz-adv-x="393" d="M59 0l158 1006h105l-158 -1006h-105zM131 1231l207 205l141 -205h-86q-57 92 -71 110l-105 -110h-86z" />
<glyph unicode="&#xef;" horiz-adv-x="251" d="M-10 0l157 1006h105l-158 -1006h-104zM137 1239l33 197h76l-33 -197h-76zM270 1239l33 197h74l-33 -197h-74z" />
<glyph unicode="&#xf0;" horiz-adv-x="1167" d="M74 471q21 132 105 245.5t206.5 180t253.5 66.5q127 0 250 -74q-8 32 -23 83t-26.5 88t-12.5 38l-125 -49l-26 94q92 35 127 49l-68 217l103 43q53 -178 65 -219l144 55l24 -94q-104 -41 -139 -55l84 -297l6 -25q12 -50 18 -80t12 -76t4.5 -92.5t-9.5 -97.5 q-21 -131 -104.5 -243.5t-206 -179t-253.5 -66.5q-199 0 -323 143q-118 139 -86 346zM176 471q-26 -163 70 -272q44 -56 110 -85.5t144 -29.5q156 0 287.5 115t156.5 272q6 41 7 79t-4 77.5t-9.5 64.5t-13.5 69q-3 13 -4 19q-55 26 -91.5 40.5t-92 27t-113.5 12.5 q-159 0 -290.5 -115.5t-156.5 -273.5z" />
<glyph unicode="&#xf1;" horiz-adv-x="1005" d="M0 0l158 1008h102q-8 -60 -10 -66q2 1 29 12t34 14t33.5 13.5t39.5 14.5t38 12t42.5 11.5t41 8t45 6.5t43.5 2q160 0 250 -110q92 -109 67 -267l-102 -659h-100l102 659q19 114 -49.5 195.5t-183.5 81.5q-87 0 -164 -20.5t-178 -59.5l-136 -856h-102zM442 1415l72 12 q0 -37 14 -51q17 -14 42.5 -10t45.5 25q41 41 95.5 45t89.5 -29q32 -29 35 -96l-76 -13q2 36 -12 50q-13 15 -41 11t-48 -24q-39 -41 -93 -45t-87 29q-34 27 -37 96z" />
<glyph unicode="&#xf2;" horiz-adv-x="1265" d="M80 508q17 107 72.5 204t142.5 171q88 73 192.5 113t210.5 40q107 0 198.5 -39.5t156.5 -113.5q64 -75 89.5 -172t8.5 -203q-36 -223 -217 -375q-183 -153 -404 -153q-106 0 -197.5 39.5t-156.5 113.5q-131 156 -96 375zM180 508q-27 -175 80 -301q108 -127 287 -127 t325 127q149 124 177 301q26 180 -80 301q-108 127 -287 127q-180 0 -326 -127q-72 -61 -118 -139t-58 -162zM627 1436h92l164 -195h-92z" />
<glyph unicode="&#xf3;" horiz-adv-x="1265" d="M80 508q17 107 72.5 204t142.5 171q88 73 192.5 113t210.5 40q107 0 198.5 -39.5t156.5 -113.5q64 -75 89.5 -172t8.5 -203q-36 -223 -217 -375q-183 -153 -404 -153q-106 0 -197.5 39.5t-156.5 113.5q-131 156 -96 375zM180 508q-27 -175 80 -301q108 -127 287 -127 t325 127q149 124 177 301q26 180 -80 301q-108 127 -287 127q-180 0 -326 -127q-72 -61 -118 -139t-58 -162zM600 1241l225 195h93l-226 -195h-92z" />
<glyph unicode="&#xf4;" horiz-adv-x="1265" d="M80 508q17 107 72.5 204t142.5 171q88 73 192.5 113t210.5 40q107 0 198.5 -39.5t156.5 -113.5q64 -75 89.5 -172t8.5 -203q-36 -223 -217 -375q-183 -153 -404 -153q-106 0 -197.5 39.5t-156.5 113.5q-131 156 -96 375zM180 508q-27 -175 80 -301q108 -127 287 -127 t325 127q149 124 177 301q26 180 -80 301q-108 127 -287 127q-180 0 -326 -127q-72 -61 -118 -139t-58 -162zM573 1233l207 205l142 -205h-86q-58 92 -72 110l-105 -110h-86z" />
<glyph unicode="&#xf5;" horiz-adv-x="1265" d="M80 508q17 107 72.5 204t142.5 171q88 73 192.5 113t210.5 40q107 0 198.5 -39.5t156.5 -113.5q64 -75 89.5 -172t8.5 -203q-36 -223 -217 -375q-183 -153 -404 -153q-106 0 -197.5 39.5t-156.5 113.5q-131 156 -96 375zM180 508q-27 -175 80 -301q108 -127 287 -127 t325 127q149 124 177 301q26 180 -80 301q-108 127 -287 127q-180 0 -326 -127q-72 -61 -118 -139t-58 -162zM565 1417l72 13q0 -38 14 -52q17 -14 42.5 -10t45.5 25q41 41 95.5 45t89.5 -29q31 -28 34 -96l-75 -13q2 35 -13 50q-13 15 -40.5 11t-47.5 -24q-39 -41 -93 -45 t-87 29q-34 27 -37 96z" />
<glyph unicode="&#xf6;" horiz-adv-x="1265" d="M80 508q17 107 72.5 204t142.5 171q88 73 192.5 113t210.5 40q107 0 198.5 -39.5t156.5 -113.5q64 -75 89.5 -172t8.5 -203q-36 -223 -217 -375q-183 -153 -404 -153q-106 0 -197.5 39.5t-156.5 113.5q-131 156 -96 375zM180 508q-27 -175 80 -301q108 -127 287 -127 t325 127q149 124 177 301q26 180 -80 301q-108 127 -287 127q-180 0 -326 -127q-72 -61 -118 -139t-58 -162zM633 1239l33 197h75l-32 -197h-76zM766 1239l33 197h73l-32 -197h-74z" />
<glyph unicode="&#xf7;" horiz-adv-x="765" d="M72 461l16 104h571l-16 -104h-571zM268 227l29 187h104l-28 -187h-105zM330 616l28 185h105l-29 -185h-104z" />
<glyph unicode="&#xf8;" horiz-adv-x="1253" d="M59 0q83 90 121 131q-66 75 -91.5 173t-8.5 206q22 139 113 261.5t225 195.5t274 69q163 0 273 -82q11 13 32 36t23 26h129q-112 -121 -115 -125q68 -75 95 -173.5t10 -207.5q-22 -142 -113 -264t-225 -193t-277 -71q-159 0 -274 86q-61 -66 -62 -68h-129zM182 510 q-28 -175 74 -299q10 10 308.5 322.5t324.5 340.5q-86 60 -213 60q-113 0 -221.5 -57t-183 -155t-89.5 -212zM326 147q92 -65 215 -65q174 0 320.5 127t174.5 301q28 177 -78 301q-21 -22 -315.5 -331.5t-316.5 -332.5z" />
<glyph unicode="&#xf9;" horiz-adv-x="1001" d="M57 362l101 646h102l-100 -646q-19 -115 51.5 -196.5t187.5 -81.5q63 0 130 13t107 26.5t114 40.5l133 844h102l-158 -1008h-102q8 58 10 72q-6 -2 -35 -13.5t-39.5 -15.5t-39.5 -14.5t-45 -15t-44 -12t-49.5 -11t-48 -6t-51.5 -2.5h-2h2q-166 3 -254 110 q-97 109 -72 270zM506 1436h92l164 -195h-92z" />
<glyph unicode="&#xfa;" horiz-adv-x="1021" d="M57 362l101 646h102l-100 -646q-19 -115 51.5 -196.5t187.5 -81.5q63 0 130 13t107 26.5t114 40.5l133 844h102l-158 -1008h-102q8 58 10 72q-6 -2 -35 -13.5t-39.5 -15.5t-39.5 -14.5t-45 -15t-44 -12t-49.5 -11t-48 -6t-51.5 -2.5h-2h2q-166 3 -254 110 q-97 109 -72 270zM496 1241l225 195h92l-225 -195h-92z" />
<glyph unicode="&#xfb;" horiz-adv-x="1021" d="M57 362l101 646h102l-100 -646q-19 -115 51.5 -196.5t187.5 -81.5q63 0 130 13t107 26.5t114 40.5l133 844h102l-158 -1008h-102q8 58 10 72q-6 -2 -35 -13.5t-39.5 -15.5t-39.5 -14.5t-45 -15t-44 -12t-49.5 -11t-48 -6t-51.5 -2.5h-2h2q-166 3 -254 110 q-97 109 -72 270zM446 1231l207 205l142 -205h-86q-58 92 -72 110l-105 -110h-86z" />
<glyph unicode="&#xfc;" horiz-adv-x="1021" d="M57 362l101 646h102l-100 -646q-19 -115 51.5 -196.5t187.5 -81.5q63 0 130 13t107 26.5t114 40.5l133 844h102l-158 -1008h-102q8 58 10 72q-6 -2 -35 -13.5t-39.5 -15.5t-39.5 -14.5t-45 -15t-44 -12t-49.5 -11t-48 -6t-51.5 -2.5h-2h2q-166 3 -254 110 q-97 109 -72 270zM520 1239l33 197h76l-33 -197h-76zM653 1239l33 197h74l-33 -197h-74z" />
<glyph unicode="&#xfd;" horiz-adv-x="1019" d="M57 367l101 641h104l-100 -641q-19 -117 50.5 -198t186.5 -81q62 0 127.5 12.5t108.5 26t113 39.5l133 842h102l-156 -985q-17 -118 -96 -234q-79 -121 -186 -190l-35 -25l-49 82l37 25q82 55 151 153q61 89 76 189q4 26 8 51q-62 -26 -101.5 -40.5t-113.5 -32 t-137 -17.5q-75 0 -141.5 29t-112.5 83q-95 112 -70 271zM500 1241l225 195h92l-225 -195h-92z" />
<glyph unicode="&#xfe;" d="M-66 -424l293 1860h103q-66 -404 -76 -478q65 25 105.5 38t108 26.5t130.5 13.5q141 0 252.5 -70.5t165 -192t31.5 -263.5t-114 -265t-226.5 -195.5t-276.5 -72.5q-98 0 -181 33.5t-130 100.5l-84 -535h-101zM139 238q47 -73 129.5 -115.5t177.5 -42.5q177 0 323.5 126 t174.5 304q18 113 -24 212.5t-132.5 157.5t-205.5 54q-148 0 -344 -76q-6 -35 -52 -321t-47 -299z" />
<glyph unicode="&#xff;" horiz-adv-x="1019" d="M57 367l101 641h104l-100 -641q-19 -117 50.5 -198t186.5 -81q62 0 127.5 12.5t108.5 26t113 39.5l133 842h102l-156 -985q-17 -118 -96 -234q-79 -121 -186 -190l-35 -25l-49 82l37 25q82 55 151 153q61 89 76 189q4 26 8 51q-62 -26 -101.5 -40.5t-113.5 -32 t-137 -17.5q-75 0 -141.5 29t-112.5 83q-95 112 -70 271zM535 1239l32 197h76l-33 -197h-75zM668 1239l32 197h74l-33 -197h-73z" />
<glyph unicode="&#x152;" horiz-adv-x="2215" d="M113 715q22 144 103 280.5t195.5 237.5t260.5 160t291 55q118 0 224 -34t175 -107l20 129h867l-19 -105h-764q-4 -25 -42 -266.5t-42 -267.5h521l-17 -101h-520q-4 -26 -46 -295.5t-46 -296.5h764l-17 -104h-866q13 88 19 127q-95 -64 -214 -104.5t-229 -40.5 q-142 0 -271 57.5t-212 157.5q-87 102 -122.5 238t-12.5 280zM217 715q-20 -124 9.5 -240.5t103.5 -204.5q76 -86 185 -135t233 -49q240 0 444 156l24 154q24 153 51 321t50.5 316t25.5 157q-156 156 -395 156q-126 0 -251 -51t-223.5 -136t-168 -201.5t-88.5 -242.5z" />
<glyph unicode="&#x153;" horiz-adv-x="2228" d="M80 508q17 107 72.5 204t142.5 171q88 73 192.5 113t210.5 40q107 0 198.5 -39.5t156.5 -113.5q54 -66 82 -148q49 78 129 146q86 75 190 115t211 40q219 0 352 -155q62 -75 88 -172t9 -201l-9 -49h-960q-3 -146 84 -250q104 -125 284 -125q63 0 130 13t110.5 27 t112.5 40l69 26l23 -94l-31 -10l-39 -16q-86 -31 -126.5 -44.5t-116 -28.5t-148.5 -15q-107 0 -198 39.5t-154 113.5q-58 68 -82 146q-54 -85 -129 -148q-183 -153 -404 -153q-106 0 -197.5 39.5t-156.5 113.5q-131 156 -96 375zM180 508q-27 -175 80 -301 q108 -127 287 -127t325 127q149 124 177 301l2 16q19 169 -82 285q-108 127 -287 127q-180 0 -326 -127q-72 -61 -118 -139t-58 -162zM1161 559h856q3 148 -84 252q-110 123 -284 123q-178 0 -326 -123q-120 -104 -162 -252z" />
<glyph unicode="&#x178;" horiz-adv-x="1345" d="M227 1436h125q313 -576 348 -639l553 639h125q-631 -732 -645 -748l-108 -688h-103q107 674 109 692zM711 1516l32 196h76l-33 -196h-75zM844 1516l33 196h73l-32 -196h-74z" />
<glyph unicode="&#x2c6;" horiz-adv-x="526" d="M199 1257l207 205l141 -205h-86q-58 93 -72 111l-104 -111h-86z" />
<glyph unicode="&#x2dc;" horiz-adv-x="503" d="M227 1444l72 12q0 -37 14 -51q17 -14 42.5 -10.5t45.5 24.5q41 41 95.5 45.5t89.5 -28.5q32 -29 35 -97l-76 -12q1 17 -1 27.5t-4 13t-8 8.5q-13 15 -40.5 11.5t-47.5 -23.5q-39 -41 -93 -45t-87 29q-34 27 -37 96z" />
<glyph unicode="&#x2000;" horiz-adv-x="860" />
<glyph unicode="&#x2001;" horiz-adv-x="1720" />
<glyph unicode="&#x2002;" horiz-adv-x="860" />
<glyph unicode="&#x2003;" horiz-adv-x="1720" />
<glyph unicode="&#x2004;" horiz-adv-x="573" />
<glyph unicode="&#x2005;" horiz-adv-x="430" />
<glyph unicode="&#x2006;" horiz-adv-x="286" />
<glyph unicode="&#x2007;" horiz-adv-x="286" />
<glyph unicode="&#x2008;" horiz-adv-x="215" />
<glyph unicode="&#x2009;" horiz-adv-x="344" />
<glyph unicode="&#x200a;" horiz-adv-x="95" />
<glyph unicode="&#x2010;" horiz-adv-x="765" d="M72 461l16 104h571l-16 -104h-571z" />
<glyph unicode="&#x2011;" horiz-adv-x="765" d="M72 461l16 104h571l-16 -104h-571z" />
<glyph unicode="&#x2012;" horiz-adv-x="765" d="M72 461l16 104h571l-16 -104h-571z" />
<glyph unicode="&#x2013;" horiz-adv-x="765" d="M72 461l16 104h571l-16 -104h-571z" />
<glyph unicode="&#x2014;" horiz-adv-x="905" d="M72 461l16 104h711l-17 -104h-710z" />
<glyph unicode="&#x2018;" horiz-adv-x="335" d="M215 1370l16 92h84q-24 -150 -22 -162l2 -6q10 -21 43 -47l-49 -55q-4 4 -16 13.5t-15.5 12.5t-11.5 10.5t-11.5 11.5t-8 10.5t-7.5 13.5q-14 39 -4 106z" />
<glyph unicode="&#x2019;" horiz-adv-x="335" d="M197 1247q43 27 59 47q8 10 25 115q1 11 2 17t3 16.5t3 19.5h84l-17 -92q-10 -66 -37 -106q-5 -7 -11.5 -13.5l-10.5 -10.5t-15 -11.5t-14.5 -10.5t-19 -13t-19.5 -13z" />
<glyph unicode="&#x201a;" horiz-adv-x="243" d="M-8 -57q41 28 57 47q8 10 25 115q5 33 8 53h84l-14 -92q-10 -63 -39 -107q-5 -7 -11.5 -13.5l-10.5 -10.5t-15 -11.5t-14.5 -10.5t-19 -13t-19.5 -13z" />
<glyph unicode="&#x201c;" horiz-adv-x="442" d="M215 1370l16 92h84q-24 -150 -22 -162l2 -6q10 -21 43 -47l-49 -55q-4 4 -16 13.5t-15.5 12.5t-11.5 10.5t-11.5 11.5t-8 10.5t-7.5 13.5q-14 39 -4 106zM414 1370l16 92h84q-24 -150 -22 -162l2 -6q10 -21 43 -47l-50 -55q-4 3 -12.5 10t-11.5 9.5t-10 8.5t-9.5 9 t-7.5 8t-7.5 8.5t-5.5 8.5t-5 10q-14 39 -4 106z" />
<glyph unicode="&#x201d;" horiz-adv-x="442" d="M197 1247q43 27 59 47q8 10 25 115q1 11 2 17t3 16.5t3 19.5h84l-17 -92q-10 -66 -37 -106q-5 -7 -11.5 -13.5l-10.5 -10.5t-15 -11.5t-14.5 -10.5t-19 -13t-19.5 -13zM395 1247q45 29 60 47q2 2 3 4.5t2.5 7t2.5 9t2.5 13t3 16t3.5 21t4 26t5 32.5t6 39h84l-16 -92 q-10 -66 -37 -106q-5 -7 -11.5 -13.5l-10.5 -10.5t-15 -11.5t-14.5 -10.5t-19 -13t-19.5 -13z" />
<glyph unicode="&#x201e;" horiz-adv-x="442" d="M-8 -57q41 28 57 47q8 10 25 115q5 33 8 53h84l-14 -92q-10 -63 -39 -107q-5 -7 -11.5 -13.5l-10.5 -10.5t-15 -11.5t-14.5 -10.5t-19 -13t-19.5 -13zM188 -57q45 29 60 47q8 10 25 115q5 33 8 53h84l-15 -92q-10 -63 -39 -107q-5 -7 -11.5 -13.5l-10.5 -10.5t-15 -11.5 t-14.5 -10.5t-19 -13t-19.5 -13z" />
<glyph unicode="&#x2022;" horiz-adv-x="440" d="M80 512q7 51 49.5 87t93.5 36t81 -36t22 -87q-7 -51 -49 -86t-93 -35t-81 35t-23 86z" />
<glyph unicode="&#x2026;" horiz-adv-x="587" d="M0 0l25 158h84l-25 -158h-84zM203 0l24 158h84l-24 -158h-84zM401 0l25 158h84l-25 -158h-84z" />
<glyph unicode="&#x202f;" horiz-adv-x="344" />
<glyph unicode="&#x2039;" horiz-adv-x="612" d="M80 510l461 272l-19 -120q-193 -115 -254 -152l205 -150l-18 -122z" />
<glyph unicode="&#x203a;" horiz-adv-x="612" d="M37 238l18 122q193 113 254 150l-205 152l19 120l375 -272z" />
<glyph unicode="&#x205f;" horiz-adv-x="430" />
<glyph unicode="&#x20ac;" horiz-adv-x="1439" d="M106 569q-4 81 7 150q23 144 101.5 280.5t197.5 239.5q120 103 266.5 159t294.5 56q126 0 240.5 -43t199.5 -123l31 -31l-80 -73l-27 24q-73 69 -172.5 106.5t-208.5 37.5q-126 0 -252 -49t-229 -138q-181 -154 -237 -358h528l-16 -105h-535q-4 -20 -2 -28h530l-16 -105 h-516q11 -139 86.5 -250t196 -172t262.5 -61q228 0 420 139l36 27l54 -82l-37 -27q-111 -77 -238.5 -119t-251.5 -42q-169 0 -312.5 75.5t-230 210.5t-90.5 301z" />
<glyph unicode="&#x2122;" horiz-adv-x="1167" d="M211 1335l14 99h443l-15 -99h-172l-65 -415h-101q58 364 66 415h-170zM625 920l82 526q171 -248 202 -291l291 291l-82 -526h-98q27 172 41 262l-176 -174q-78 113 -121 174l-41 -262h-98z" />
<glyph unicode="&#x25fc;" horiz-adv-x="1003" d="M0 0v1004h1004v-1004h-1004z" />
<glyph unicode="&#xfb02;" horiz-adv-x="905" d="M2 0l160 1012q17 124 92.5 239t187.5 187l37 24l49 -82l-39 -24q-89 -54 -154 -158.5t-73 -189.5h135l-14 -103h-135l-144 -905h-102zM467 420l162 1016h102l-162 -1016q-14 -100 17 -199q30 -87 100 -147l31 -25l-74 -84l-29 27q-85 70 -127 186q-41 115 -20 242z" />
<glyph unicode="&#xfb03;" horiz-adv-x="1181" d="M2 0l160 1012q17 124 92.5 239t187.5 187l37 24l49 -82l-39 -24q-90 -61 -151 -153t-74 -191l-2 -4h330l2 4q17 124 92.5 239t187.5 187l37 24l50 -82l-39 -24q-90 -61 -151.5 -153t-74.5 -191l-2 -4h451l-158 -1008h-104l143 905h-346l-143 -905h-103l144 905h-330 l-144 -905h-102zM1077 1231l33 205h102l-32 -205h-103z" />
</font>
</defs>
</svg>
