<?xml version="1.0" standalone="no"?>
<!DOCTYPE svg PUBLIC "-//W3C//DTD SVG 1.1//EN" "http://www.w3.org/Graphics/SVG/1.1/DTD/svg11.dtd" >
<svg xmlns="http://www.w3.org/2000/svg">
<metadata></metadata>
<defs>
<font id="mb_noirthin_italic" horiz-adv-x="1136" >
<font-face units-per-em="2048" ascent="1536" descent="-512" />
<missing-glyph horiz-adv-x="450" />
<glyph unicode="&#xfb01;" horiz-adv-x="565" d="M0 0l162 1034q21 129 96 240q66 102 180 180l11 -16q-106 -71 -177 -174q-70 -112 -90 -230v-10h350l-161 -1024h-21l158 1006h-330l-158 -1006h-20zM545 1231l33 205h20l-33 -205h-20z" />
<glyph horiz-adv-x="0" />
<glyph horiz-adv-x="682" />
<glyph horiz-adv-x="0" />
<glyph horiz-adv-x="0" />
<glyph unicode="&#xd;" horiz-adv-x="450" />
<glyph unicode=" "  horiz-adv-x="450" />
<glyph unicode="&#x09;" horiz-adv-x="450" />
<glyph unicode="&#xa0;" horiz-adv-x="450" />
<glyph unicode="!" horiz-adv-x="215" d="M0 0l29 193h20l-29 -193h-20zM47 307l180 1129h21l-180 -1129h-21z" />
<glyph unicode="&#x22;" horiz-adv-x="245" d="M197 1245l34 217h21l-35 -217h-20zM319 1245l35 217h21l-35 -217h-21z" />
<glyph unicode="#" horiz-adv-x="710" d="M168 1061l2 22h143l31 187h-143l2 18h143l25 148h20l-24 -148h188l25 148h20l-25 -148h144l-2 -18h-144l-30 -187h143l-2 -22h-143l-25 -143h-20l24 143h-188l-25 -143h-20l24 143h-143zM334 1083h188l31 187h-188z" />
<glyph unicode="$" horiz-adv-x="1089" d="M37 236l8 18q94 -39 150 -60t137 -39t155 -18q92 0 193.5 43t169.5 113q50 48 77.5 110.5t24.5 126.5q-3 121 -123 179q-78 36 -237 49q-184 14 -256 47q-65 28 -94 74q-32 54 -19 141q18 102 105 180q57 51 145 88q85 29 166 29l20 119h19l-21 -119q86 -4 167 -28.5 t184 -69.5l-13 -19q-114 49 -195.5 73.5t-170.5 24.5q-74 0 -153 -30.5t-136 -81.5q-83 -71 -96 -174q-21 -135 102 -189q83 -36 252 -45q160 -13 244 -51q125 -61 131 -192q3 -144 -109 -256q-75 -77 -178 -117.5t-217 -42.5l-18 -119h-19l19 119q-101 4 -193 33t-221 84z " />
<glyph unicode="%" horiz-adv-x="1243" d="M0 0l1126 1436h23l-1126 -1436h-23zM188 1180q17 109 107.5 187.5t200.5 78.5q109 0 175.5 -78.5t49.5 -187.5q-19 -109 -110 -188t-199 -79q-110 0 -176.5 79t-47.5 188zM207 1180q-17 -101 45 -173.5t164 -72.5q100 0 183.5 72.5t100.5 173.5q15 101 -45.5 173 t-160.5 72q-102 0 -187 -72t-100 -173zM459 309q22 130 129.5 223t238.5 93q132 0 211.5 -93.5t57.5 -222.5q-20 -132 -128.5 -225.5t-240.5 -93.5t-210 93.5t-58 225.5zM477 309q-19 -124 55 -211.5t197 -87.5q124 0 225.5 87.5t120.5 211.5q20 121 -54.5 208t-197.5 87 t-224.5 -86.5t-121.5 -208.5z" />
<glyph unicode="&#x26;" horiz-adv-x="1183" d="M66 338q-6 113 36 220.5t131 188.5t207 105q-69 111 -89 162q-35 91 -23 172q18 107 112 180q102 82 217 82q117 3 189 -82q44 -52 53.5 -125.5t-21 -150.5t-96.5 -132q-32 -27 -74 -46.5t-72.5 -28t-84.5 -20.5t-78 -19q42 -68 175.5 -288t203.5 -333q76 102 94 217 q0 11 2 17h21q0 -2 -1 -8t-1 -9q-21 -122 -105 -233l127 -207h-24q-47 75 -117 188q-85 -101 -207 -153.5t-242 -40.5q-140 15 -231 109.5t-102 234.5zM86 342q8 -133 97 -224.5t223 -103.5q115 -12 231.5 40t200.5 151q-69 114 -215 351.5t-172 279.5q-114 -20 -202 -98.5 t-129.5 -184t-33.5 -211.5zM348 1186q-12 -82 18 -155.5t95 -170.5q3 1 58 13t72 17.5t58.5 18.5t69 28.5t51.5 35.5q91 76 109 186.5t-50 192.5q-63 78 -172 75q-110 0 -206 -75q-89 -72 -103 -166z" />
<glyph unicode="'" horiz-adv-x="122" d="M197 1245l34 217h21l-35 -217h-20z" />
<glyph unicode="(" horiz-adv-x="372" d="M81 454q2 76 15 160l33 207q17 110 57.5 221.5t73.5 175.5t100 183l25 43l21 -8l-29 -45q-53 -97 -73.5 -136t-59 -121t-60 -156t-34.5 -157l-33 -207q-13 -83 -15 -158t9.5 -153t21 -124t31.5 -134l14 -45l-20 -8l-15 43q-22 90 -31.5 137t-21 126.5t-9.5 155.5z" />
<glyph unicode=")" horiz-adv-x="372" d="M0 0l27 45q55 99 74 136t58 120t60.5 156.5t34.5 156.5l33 207q13 83 15 158.5t-9.5 153t-21 124t-31.5 134.5l-13 45l21 8l12 -43q22 -90 31.5 -137t21 -126.5t9.5 -156t-15 -160.5l-33 -207q-13 -84 -35 -160t-59 -156t-61.5 -126t-75.5 -137l-27 -43z" />
<glyph unicode="*" horiz-adv-x="706" d="M182 969l236 202h-234l4 19h232l-170 201l14 14l172 -201l37 232h21l-39 -236l235 205l12 -14l-231 -201h229l-4 -19h-231l170 -202l-17 -15l-169 203l-37 -231h-21l37 225l-235 -197z" />
<glyph unicode="+" horiz-adv-x="710" d="M78 502l4 18h248l39 248h20l-39 -248h248l-4 -18h-248l-39 -248h-20l39 248h-248z" />
<glyph unicode="," horiz-adv-x="122" d="M-88 -94q55 35 70 55.5t24 77.5l17 115h20l-16 -115q-10 -63 -28.5 -87.5t-76.5 -62.5z" />
<glyph unicode="-" horiz-adv-x="708" d="M78 502l4 18h514l-4 -18h-514z" />
<glyph unicode="." horiz-adv-x="120" d="M0 0l23 154h18l-23 -154h-18z" />
<glyph unicode="/" horiz-adv-x="692" d="M0 0l702 1436h23l-702 -1436h-23z" />
<glyph unicode="0" horiz-adv-x="1519" d="M113 717q33 211 172 397.5t338 274.5q131 57 268 57.5t250 -57.5q170 -91 250 -275.5t47 -396.5q-33 -210 -171.5 -394.5t-338.5 -275.5q-131 -58 -268 -57.5t-250 57.5q-171 91 -251 274.5t-46 395.5zM133 717q-33 -203 45 -384t244 -267q109 -56 241 -56t261 56 q193 86 326.5 266.5t166.5 384.5t-45 384.5t-244 268.5q-113 57 -241.5 56.5t-259.5 -56.5q-194 -86 -327.5 -267t-166.5 -386z" />
<glyph unicode="1" horiz-adv-x="335" d="M123 0q221 1397 225 1430l-123 -56l-6 17l154 71l-232 -1462h-18z" />
<glyph unicode="2" horiz-adv-x="948" d="M0 0q4 5 365 405.5t397 446.5q111 130 129 258q22 130 -57 223.5t-211 93.5q-135 0 -301 -65l-7 20q177 66 310 66q140 0 223.5 -99.5t60.5 -238.5q-18 -130 -133 -270q-51 -65 -733 -820h713l-2 -20h-754z" />
<glyph unicode="3" horiz-adv-x="948" d="M10 68l8 18q184 -78 330 -78q159 0 291.5 113.5t157.5 271.5q25 155 -71.5 269t-252.5 110h-29l5 21q132 0 240 93t128 224q22 130 -57 223.5t-211 93.5q-130 0 -301 -63l-4 18q175 66 307 66q141 0 225.5 -99.5t61.5 -238.5q-17 -112 -100.5 -202.5t-192.5 -121.5 q138 -22 215 -136t55 -257q-26 -166 -164 -285.5t-305 -119.5q-147 0 -336 80z" />
<glyph unicode="4" d="M78 500l897 960q-82 -519 -148 -940h197l-4 -20h-197l-78 -500h-18q43 273 78 500h-727zM123 520h686q83 541 139 883q-18 -19 -215 -230t-403 -431.5t-207 -221.5z" />
<glyph unicode="5" horiz-adv-x="1034" d="M10 76l13 20q196 -88 366 -88q178 0 325 126t175 304q28 175 -79 302.5t-284 123.5h-336l195 572h571l-4 -21h-555q-3 -12 -87.5 -264t-90.5 -266h311q121 2 215 -58.5t137.5 -164.5t24.5 -224q-19 -122 -95.5 -225.5t-189.5 -164t-235 -60.5q-164 0 -377 88z" />
<glyph unicode="6" horiz-adv-x="1093" d="M70 438q47 316 262 595.5t520 418.5l6 -16q-257 -122 -453.5 -344.5t-273.5 -483.5q69 124 197 201.5t262 77.5q184 0 295 -133q110 -129 80 -315.5t-181 -317.5q-149 -131 -335 -131q-119 0 -214.5 60t-141.5 164t-23 224zM90 438q-16 -86 5.5 -166t72 -137t124.5 -91 t159 -34q181 0 321 125q146 123 174 302t-78 302q-105 127 -282 127q-112 0 -221.5 -57.5t-185 -157.5t-89.5 -213z" />
<glyph unicode="7" horiz-adv-x="1040" d="M0 0q1014 1386 1034 1415h-798l4 21h833l-1050 -1436h-23z" />
<glyph unicode="8" horiz-adv-x="1015" d="M63.5 400.5q27.5 169.5 165.5 289.5q93 84 224 113q-104 26 -159 114t-36 201q22 135 133 231.5t246 96.5t217.5 -96.5t60.5 -231.5q-19 -113 -101.5 -200.5t-190.5 -114.5q113 -28 186 -113q101 -120 73.5 -289.5t-165.5 -289.5q-140 -121 -309 -121t-271 121 q-101 120 -73.5 289.5zM84.5 400.5q-26.5 -162.5 69.5 -275.5q44 -55 111.5 -85t144.5 -30q161 0 295 115q87 73 129.5 174.5t31.5 202t-73 174.5q-98 115 -258 115q-77 0 -154.5 -30t-138.5 -85q-131 -113 -157.5 -275.5zM279 1118q-20 -128 55.5 -217.5t202.5 -89.5 q128 0 232 90t124 217q20 128 -55.5 217.5t-202.5 89.5q-128 0 -232 -90t-124 -217z" />
<glyph unicode="9" horiz-adv-x="1093" d="M158 999q27 182 182 318q149 131 336 131q89 0 167 -36t130.5 -96t75.5 -143.5t6 -173.5q-47 -316 -262.5 -595t-520.5 -418l-4 16q256 123 453 345t274 482q-70 -124 -198 -201t-262 -77q-184 0 -295 133q-112 131 -82 315zM178 999q-28 -178 80 -301q102 -127 281 -127 q112 0 221 57.5t184.5 157.5t89.5 213q22 115 -21.5 214.5t-134.5 156.5t-204 57q-180 0 -322 -124q-70 -60 -115 -139t-59 -165z" />
<glyph unicode=":" horiz-adv-x="122" d="M47 309l31 193h20l-30 -193h-21zM96 616l31 193h20l-30 -193h-21z" />
<glyph unicode=";" horiz-adv-x="122" d="M-88 -94q54 36 69.5 56.5t24.5 76.5l17 115h20l-16 -115q-10 -63 -28.5 -87.5t-76.5 -62.5zM47 309l31 193h20l-30 -193h-21z" />
<glyph unicode="&#x3c;" horiz-adv-x="522" d="M80 510l362 221l-4 -26q-294 -179 -321 -195l260 -193l-4 -24z" />
<glyph unicode="=" horiz-adv-x="708" d="M61 399l5 19h514l-5 -19h-514zM94 604l4 21h514l-4 -21h-514z" />
<glyph unicode="&#x3e;" horiz-adv-x="522" d="M45 293l4 24q295 179 322 193l-260 195l4 26l293 -221z" />
<glyph unicode="?" horiz-adv-x="948" d="M215 1370q213 80 363 80q167 0 266.5 -120t73.5 -286q-17 -107 -86 -199t-170 -146t-209 -54h-11l-53 -336h-18l57 357h29q156 0 286.5 111t155.5 267q26 158 -70.5 272t-255.5 114q-146 0 -354 -78zM322 0l28 193h21l-29 -193h-20z" />
<glyph unicode="@" horiz-adv-x="1447" d="M80 512q30 186 161 348t314 230q122 49 252 49q254 0 414 -183q153 -188 112 -444q-25 -161 -125.5 -305t-249.5 -225l-18 -11q27 167 43 271q-71 -68 -160.5 -107t-179.5 -39q-173 0 -274 123q-103 121 -78 297q28 169 171.5 293.5t313.5 124.5q60 0 119.5 -13.5 t93 -26.5t111.5 -46q-127 -803 -133 -840q137 81 231 217.5t117 286.5q20 119 -10 230t-101 200q-70 84 -175 130t-226 46q-119 0 -246 -47q-176 -67 -302.5 -223.5t-154.5 -335.5t49 -336.5t232 -222.5q103 -47 229 -47l-2 -21q-133 0 -237 49q-107 45 -180 135 t-101.5 205.5t-9.5 237.5zM311 516q-25 -169 74 -283q96 -116 262 -116q94 0 185 41t157 116q14 91 38 244t36.5 233t13.5 83q-61 27 -94 40t-92 26t-119 13q-161 0 -298 -118t-163 -279z" />
<glyph unicode="A" horiz-adv-x="1447" d="M0 0l858 1462l395 -1462h-22q-78 290 -164 606h-690l-354 -606h-23zM389 627h672q-43 161 -94.5 352.5t-83 308t-33.5 123.5q-45 -75 -461 -784z" />
<glyph unicode="B" horiz-adv-x="1112" d="M0 0l227 1436h512q144 0 231 -98q69 -77 69 -183q0 -28 -5 -59q-17 -115 -105 -212t-204 -124q127 -24 199 -136q57 -87 57 -188q0 -28 -4 -57q-16 -101 -81 -190t-162 -141q-90 -48 -184 -48h-15h-535zM23 20h514h18q137 0 253 101q124 108 148 258q4 28 4 56 q0 66 -25 126q-35 85 -113 137q-75 50 -168 50h-7h-510q-113 -721 -114 -728zM141 768h492q135 0 247 96t134 232q5 28 5 55q1 99 -65 171q-82 92 -219 93h-491q-3 -13 -103 -647z" />
<glyph unicode="C" horiz-adv-x="1386" d="M113 723q35 218 187.5 403.5t365.5 268.5q140 57 295 57q127 0 239.5 -42t194.5 -122l-15 -16q-82 77 -191.5 118.5t-232.5 41.5q-145 0 -284 -56q-209 -82 -357 -261.5t-182 -391.5q-9 -57 -9 -112q0 -128 49 -243q70 -164 218.5 -260t339.5 -96q121 0 243.5 40 t225.5 116l10 -16q-109 -77 -233.5 -118.5t-247.5 -41.5q-147 0 -272.5 58.5t-208.5 157t-120 233.5q-23 85 -23 174q0 53 8 108z" />
<glyph unicode="D" horiz-adv-x="1359" d="M0 0l227 1436h447h19q129 0 245 -51q125 -55 211 -156q86 -103 119 -235q19 -78 19 -160q0 -57 -9 -117q-22 -141 -98.5 -276t-192.5 -232q-119 -101 -261 -157q-133 -52 -262 -52h-18h-446zM23 20h426h10q133 0 267 52q140 54 249 151q113 94 188 225t97 269q9 56 9 111 q0 82 -20 158q-34 128 -119 228q-83 98 -204 152q-113 50 -237 49h-19h-426q-2 -9 -110.5 -697t-110.5 -698z" />
<glyph unicode="E" horiz-adv-x="1009" d="M0 0l227 1436h815l-4 -21h-794l-103 -647h541l-4 -20h-541l-114 -728h794l-2 -20h-815z" />
<glyph unicode="F" horiz-adv-x="1015" d="M0 0l227 1436h822l-5 -21h-800l-103 -649h545l-4 -21h-545l-117 -745h-20z" />
<glyph unicode="G" horiz-adv-x="1413" d="M113 721q23 145 99.5 278t195.5 238q120 103 263.5 159t289.5 56q255 0 436 -164l-17 -16q-81 77 -191.5 118.5t-232.5 41.5q-291 0 -536 -209q-114 -98 -189 -229.5t-98 -272.5q-9 -56 -9 -110q0 -83 20 -163q34 -131 116 -229q86 -101 207.5 -155t263.5 -54 q72 0 166 22t156.5 44t165.5 61l96 613h-559l4 20h579l-120 -770h-21q6 45 16 115q-106 -40 -161.5 -59.5t-152.5 -42.5t-171 -23q-146 0 -271.5 56t-213.5 159q-86 103 -120 237q-20 80 -20 164q0 56 9 115z" />
<glyph unicode="H" horiz-adv-x="1095" d="M0 0l227 1436h19l-107 -668h865l106 668h18l-227 -1436h-18l116 748h-864l-117 -748h-18z" />
<glyph unicode="I" horiz-adv-x="215" d="M0 0l227 1436h21l-228 -1436h-20z" />
<glyph unicode="J" horiz-adv-x="360" d="M-88 -205q104 70 175 177.5t91 226.5l193 1218h-148l4 19h166l-196 -1237q-20 -123 -93.5 -235.5t-181.5 -182.5z" />
<glyph unicode="K" horiz-adv-x="1142" d="M0 0l227 1436h21l-105 -660l975 660h33l-756 -510l553 -926h-24l-547 913l-238 -161l-119 -752h-20z" />
<glyph unicode="L" horiz-adv-x="1011" d="M0 0l227 1436h21q-221 -1396 -225 -1416h796l-2 -20h-817z" />
<glyph unicode="M" horiz-adv-x="1542" d="M0 0l231 1462q515 -911 525 -934l823 934l-231 -1462h-21q211 1342 221 1401l-796 -905q-485 856 -510 905l-222 -1401h-20z" />
<glyph unicode="N" horiz-adv-x="1265" d="M0 0l231 1462q795 -1378 824 -1425l223 1399h20l-233 -1463q-796 1379 -823 1426l-222 -1399h-20z" />
<glyph unicode="O" horiz-adv-x="1658" d="M113 719q23 146 101 282.5t196 235.5q107 96 258 158q140 57 293 57q146 0 272.5 -56t210.5 -159q88 -100 122 -236q20 -80 20 -164q0 -58 -9 -118q-23 -144 -101.5 -280.5t-195.5 -235.5q-115 -102 -260 -158.5t-291 -56.5q-145 0 -274 57q-189 87 -283 271 q-69 134 -68 287q0 57 9 116zM133 719q-9 -57 -9 -111q0 -148 67 -281q92 -182 272 -264q135 -55 268 -55q141 0 281 54.5t256 154.5q116 99 191 230.5t97 271.5q9 58 9 115q0 82 -19 158q-33 130 -119 231q-84 101 -206.5 155t-264.5 54q-139 0 -284 -56 q-140 -58 -250 -153q-115 -99 -190.5 -231t-98.5 -273z" />
<glyph unicode="P" d="M0 0l227 1436h525q9 0 18 1q101 1 182 -53q88 -58 128 -156q28 -68 27 -141q0 -33 -5 -67q-17 -111 -89 -207.5t-178 -152.5q-101 -54 -206 -54h-11h-503l-95 -606h-20zM119 627h504h11q155 -1 286 113q136 118 161 280q5 33 5 65q0 70 -25 134q-37 93 -121 147 q-76 49 -171 50q-10 0 -21 -1h-504q-7 -33 -125 -788z" />
<glyph unicode="Q" horiz-adv-x="1658" d="M113 721q35 219 188.5 405t366.5 269q143 57 292.5 57t274.5 -57q124 -56 211 -158.5t117 -232.5q23 -89 23 -176q0 -54 -9 -107q-19 -136 -104 -285q-110 -198 -316 -323t-420 -125l-32 -205h-19l33 205q-193 0 -344 101.5t-221 270.5q-50 119 -50 248q0 56 9 113z M131 721q-8 -52 -8 -104q0 -84 22 -165q36 -132 114.5 -229.5t200.5 -156.5q117 -56 252 -56h9l31 197h18l-31 -197q209 0 408 120.5t309 313.5q77 133 98 277q10 60 10 118q0 81 -20 158q-36 129 -118 228.5t-201 150.5q-124 56 -267 56q-2 1 -3 1q-142 0 -283 -57 q-207 -79 -357 -261.5t-184 -393.5z" />
<glyph unicode="R" d="M0 0l227 1436h523q9 0 18 1q102 -1 183 -53q88 -56 129 -154q29 -69 29 -144q0 -31 -5 -64q-28 -174 -170 -295q-134 -115 -299 -121l307 -606h-24l-308 606h-495l-95 -606h-20zM119 625h502q167 0 301 116q135 114 163 281q5 30 5 60q0 72 -28 138q-40 93 -124 147 q-76 49 -172 49q-11 0 -21 -1h-501q-11 -53 -125 -790z" />
<glyph unicode="S" horiz-adv-x="1284" d="M20 135l11 19q165 -72 285 -108t253 -36q116 0 239 51t208 138q123 126 123 283v7q-3 149 -150 218q-106 51 -293 63q-210 14 -309 57q-141 62 -141 205q0 25 4 53q22 129 129 220q71 65 172 105q96 38 183 38h9q111 0 214.5 -30.5t244.5 -90.5l-8 -18 q-137 59 -240.5 88.5t-212.5 29.5q-90 0 -184.5 -36.5t-165.5 -98.5q-106 -95 -121 -215q-4 -24 -4 -46q0 -126 133 -185q96 -41 303 -55q201 -18 299 -66q73 -32 116 -91.5t44 -139.5q0 -174 -131 -308q-90 -90 -216 -143t-247 -53q-134 0 -257 36.5t-290 108.5z" />
<glyph unicode="T" horiz-adv-x="1318" d="M223 1415l4 21h1125l-4 -21h-557l-224 -1415h-18l223 1415h-549z" />
<glyph unicode="U" horiz-adv-x="1245" d="M82 516l147 920h21l-148 -920q-8 -43 -8 -84q0 -56 14 -110q26 -94 83.5 -162t144.5 -109t186 -41q133 0 262.5 68t218.5 186t105 252l147 920h21l-148 -920q-17 -141 -109 -263t-226 -192.5t-273 -70.5t-249.5 71t-162.5 193q-35 81 -35 169q0 45 9 93z" />
<glyph unicode="V" horiz-adv-x="1445" d="M227 1436h23q367 -1377 379 -1420l827 1420h23l-858 -1471z" />
<glyph unicode="W" horiz-adv-x="2238" d="M227 1436h23q281 -1362 289 -1413l694 1298q270 -1247 278 -1298l738 1413h22l-768 -1471q-270 1250 -280 1297l-693 -1295z" />
<glyph unicode="X" horiz-adv-x="1259" d="M0 0l633 717l-406 719h25q383 -681 395 -701l621 701h24l-635 -719l408 -717h-25q-385 680 -397 700l-618 -700h-25z" />
<glyph unicode="Y" horiz-adv-x="1249" d="M227 1436h27q375 -690 385 -713l616 713h27l-637 -736l-110 -700h-19l111 702z" />
<glyph unicode="Z" horiz-adv-x="1275" d="M0 0q1237 1384 1264 1415h-985l4 21h1026q-1239 -1385 -1268 -1416h1022l-2 -20h-1061z" />
<glyph unicode="[" horiz-adv-x="358" d="M0 0l227 1436h164l-4 -19h-143q-1 -14 -109.5 -698.5t-111.5 -700.5h141l-2 -18h-162z" />
<glyph unicode="\" horiz-adv-x="692" d="M227 1436h23l248 -1436h-23z" />
<glyph unicode="]" horiz-adv-x="358" d="M2 0l2 18h141q3 16 112 700.5t110 698.5h-144l4 19h164l-227 -1436h-162z" />
<glyph unicode="^" horiz-adv-x="729" d="M145 926l351 534l184 -534h-25q-154 456 -166 489l-321 -489h-23z" />
<glyph unicode="_" horiz-adv-x="952" d="M-6 -39l4 19h756l-4 -19h-756z" />
<glyph unicode="`" horiz-adv-x="331" d="M231 1462h29l168 -200h-29z" />
<glyph unicode="a" d="M80 514q36 219 211 371q180 151 395 151q106 0 187 -23t198 -75l14 86h19l-162 -1024h-18l26 178q-87 -90 -200 -138t-230 -48q-219 0 -346 151q-63 75 -87 171q-14 56 -14 115q0 42 7 85zM100 514q-6 -42 -6 -82q0 -158 99 -274q121 -146 329 -146q116 0 233 52.5 t201 144.5l111 709l-20 8q-66 29 -110 45.5t-113.5 30.5t-141.5 14q-209 0 -377 -148q-169 -140 -205 -354z" />
<glyph unicode="b" horiz-adv-x="1138" d="M0 0l227 1438h23l-80 -498q126 49 216.5 72.5t197.5 23.5q106 0 196.5 -39t151.5 -112q62 -75 86 -171q14 -56 13 -114q0 -42 -7 -86q-36 -221 -211 -373q-174 -151 -395 -151q-114 0 -213.5 49.5t-155.5 136.5l-26 -176h-23zM55 209q52 -93 151 -146t214 -53 q204 0 383 146q81 73 134.5 166.5t68.5 191.5q7 40 7 79q-1 57 -15 111q-24 92 -83 166q-129 148 -335 148q-25 0 -49 -1.5t-49.5 -5.5t-43.5 -6.5t-45 -10t-41 -11t-43.5 -14t-39 -13.5t-43 -15t-40.5 -15q-12 -6 -20 -8z" />
<glyph unicode="c" horiz-adv-x="1048" d="M80 512q17 105 72.5 202t142.5 171q83 72 185.5 111.5t205.5 39.5q190 0 311 -118l-16 -17q-112 115 -299 115q-202 0 -377 -148q-174 -151 -205 -356q-6 -38 -7 -75q0 -60 17 -117q26 -93 83 -160.5t143.5 -108.5t185.5 -41q180 0 334 109l12 -15q-156 -114 -348 -114 q-140 0 -250 72q-108 72 -160 192q-36 84 -37 177q0 40 7 81z" />
<glyph unicode="d" horiz-adv-x="1138" d="M80 514q36 219 211 371q177 151 397 151q74 0 145 -14.5t115.5 -31.5t120.5 -50l80 498h22l-227 -1438h-22q18 123 26 176q-84 -87 -198.5 -136.5t-227.5 -49.5q-106 0 -196.5 39t-153.5 112q-100 122 -100 282q0 44 8 91zM98 514q-6 -38 -6 -75q0 -59 15 -117 q24 -94 83 -166q61 -70 147.5 -108t186.5 -38q115 0 231.5 53t198.5 146l111 709l-16 8q-137 57 -198 72q-81 20 -167 20q-206 0 -381 -148q-169 -149 -205 -356z" />
<glyph unicode="e" horiz-adv-x="1247" d="M80 510q36 219 213 373q180 153 395 153q106 0 197 -42.5t151 -113.5q60 -70 86 -170q14 -56 15 -115q0 -46 -9 -93h-1030q-5 -38 -5 -75q0 -156 97 -273q61 -72 147.5 -110t186.5 -38q73 0 148 14.5t122.5 30t127.5 45.5l26 13l6 -17l-28 -12q-116 -47 -206.5 -70.5 t-199.5 -23.5q-213 0 -346 155q-101 122 -101 280q0 43 7 89zM102 520h1010q7 39 7 76q0 60 -17 116q-27 92 -86.5 158.5t-146.5 106t-185 39.5q-208 0 -379 -148q-81 -68 -133.5 -158.5t-69.5 -189.5z" />
<glyph unicode="f" horiz-adv-x="415" d="M0 0l162 1034q21 129 96 240q66 102 180 180l11 -16q-106 -71 -177 -174q-70 -112 -90 -230v-10h144l-4 -18h-144l-158 -1006h-20z" />
<glyph unicode="g" d="M80 512q36 217 213 371q86 73 188 113t205 40q72 0 142 -15.5t112 -31.5t129 -53l14 88h19l-164 -1032q-15 -116 -89.5 -228.5t-182.5 -187.5l-11 16q101 69 173.5 178.5t91.5 221.5l28 184q-84 -87 -199 -136.5t-229 -49.5q-104 0 -193.5 40t-150.5 115q-63 72 -88 167 q-15 57 -15 117q0 41 7 83zM100 512q-6 -39 -6 -77q0 -60 14 -115q24 -92 85 -162q58 -71 144 -109.5t185 -38.5q115 0 232 53.5t200 145.5l111 706q-11 4 -55.5 23t-60.5 25t-55.5 19.5t-66.5 18.5t-66 10t-79 5q-97 0 -195.5 -38.5t-181.5 -107.5q-84 -71 -137 -164 t-68 -194z" />
<glyph unicode="h" horiz-adv-x="976" d="M0 0l227 1436h21l-80 -500q122 48 217.5 72.5t198.5 27.5q154 0 239 -108q69 -83 70 -192q0 -31 -6 -64l-105 -672h-18l104 672q5 31 5 59q0 105 -66 184q-84 101 -227 101q-72 0 -149.5 -16t-123 -32t-143.5 -53l-144 -915h-20z" />
<glyph unicode="i" horiz-adv-x="215" d="M0 0l162 1024h20l-162 -1024h-20zM195 1231l32 205h21l-33 -205h-20z" />
<glyph unicode="j" horiz-adv-x="217" d="M-266 -406q103 68 176 177.5t90 224.5l162 1028h20l-164 -1028q-15 -122 -88.5 -234t-185.5 -186zM195 1233l32 203h21l-33 -203h-20z" />
<glyph unicode="k" horiz-adv-x="944" d="M0 0l227 1436h21l-144 -897l770 485h37l-555 -346l387 -678h-24l-383 666l-236 -154l-80 -512h-20z" />
<glyph unicode="l" horiz-adv-x="417" d="M63 399l166 1037h19l-166 -1037q-6 -39 -6 -77q0 -77 24 -150q36 -108 123 -172l-16 -20q-87 74 -125 186q-25 73 -26 151q0 41 7 82z" />
<glyph unicode="m" horiz-adv-x="1662" d="M0 0l162 1024h20l-14 -88q127 48 221 72.5t195 27.5q149 0 235 -100q256 95 451 100q151 0 237 -106q72 -89 72 -202q0 -27 -4 -54l-107 -674h-20l106 674q5 29 5 57q1 105 -67 185q-84 100 -226 100q-181 0 -420 -90l-15 -6q64 -86 65 -190q0 -27 -5 -56l-107 -674h-20 l106 674q5 29 5 56q0 106 -68 186q-85 100 -227 100q-72 0 -150 -16.5t-120.5 -31t-145.5 -53.5l-144 -915h-20z" />
<glyph unicode="n" horiz-adv-x="980" d="M0 0l162 1024h20l-14 -88q126 48 221.5 72.5t196.5 27.5q154 0 237 -106q74 -88 75 -201q0 -27 -5 -55l-107 -674h-20l106 674q5 29 5 56q0 106 -68 186q-85 100 -227 100q-72 0 -150 -16.5t-122.5 -31.5t-145.5 -53l-144 -915h-20z" />
<glyph unicode="o" horiz-adv-x="1241" d="M80 512q17 107 71.5 202.5t141.5 168.5q86 74 187.5 113.5t205.5 39.5q106 0 196 -42t149 -112t85 -167q16 -59 16 -122q0 -40 -6 -81q-22 -140 -111.5 -260.5t-221.5 -191t-273 -70.5q-103 0 -193 40t-151 113q-64 73 -88 169q-14 57 -15 116q0 41 7 84zM100 512 q-6 -39 -6 -77q0 -59 14 -115q24 -92 85 -162q58 -71 144 -109.5t185 -38.5q135 0 262 68t214 183.5t108 250.5q6 41 6 79q0 91 -34 173q-50 116 -155 184t-241 68q-99 0 -197.5 -38.5t-179.5 -109.5q-168 -140 -205 -356z" />
<glyph unicode="p" horiz-adv-x="1138" d="M-66 -424l228 1448h20l-14 -86l16 6q83 31 128.5 46.5t122 30.5t149.5 15q106 0 196.5 -41.5t149 -112t84.5 -166.5q17 -59 17 -122q0 -40 -7 -82q-17 -105 -71 -200.5t-138 -168.5q-179 -153 -397 -153q-116 0 -213.5 48.5t-157.5 137.5l-92 -600h-21zM51 207 q56 -91 155.5 -145t213.5 -54q206 0 383 150q82 70 134 162t67 192q7 43 7 83q0 90 -33 170q-49 116 -154.5 183.5t-243.5 67.5q-72 0 -146.5 -14.5t-120 -29.5t-127.5 -46q-12 -5 -22 -11z" />
<glyph unicode="q" horiz-adv-x="1138" d="M80 512q17 106 74 203.5t138.5 167.5t185.5 111.5t210 41.5q73 0 145 -15.5t109.5 -29.5t116.5 -47l12 -6l14 86h21l-229 -1448h-21l94 600q-87 -89 -199.5 -137.5t-228.5 -48.5q-219 0 -348 153q-63 73 -87 169q-14 55 -14 115q0 41 7 85zM100 512q-6 -40 -6 -78 q0 -59 14 -114q23 -92 82 -162q125 -150 334 -150q114 0 230.5 54t199.5 145l113 708l-18 11q-70 30 -111.5 45.5t-111.5 30t-142 14.5q-210 0 -380 -147t-204 -357z" />
<glyph unicode="r" horiz-adv-x="614" d="M0 0l162 1024h20l-14 -86l16 6q81 31 127 46.5t122.5 30.5t150.5 15l-4 -20q-72 0 -145.5 -14.5t-122 -30.5t-126.5 -47l-22 -9l-144 -915h-20z" />
<glyph unicode="s" horiz-adv-x="978" d="M14 92l11 19q115 -51 203 -77t180 -26q83 0 169.5 36.5t147.5 98.5q86 89 86 192v13q-5 180 -311 199q-149 9 -224 41q-59 27 -84 70q-18 32 -18 76q0 16 2 34q16 97 94 166q54 46 128 76q68 27 125 26h12q80 0 155 -22.5t172 -65.5l-12 -18q-95 42 -169 64t-151 22 q-63 0 -130 -25.5t-117 -68.5q-77 -71 -86 -154q-2 -15 -2 -30q0 -90 92 -132q72 -30 215 -39q52 -3 93.5 -9.5t87.5 -21.5t76.5 -37.5t51.5 -60t23 -86.5q0 -126 -97 -223q-63 -64 -153 -102.5t-178 -38.5q-95 0 -184.5 26.5t-207.5 77.5z" />
<glyph unicode="t" horiz-adv-x="415" d="M61 397l166 1039h21l-66 -412h144l-4 -18h-144l-96 -609q-6 -43 -6 -82q0 -77 24 -143q38 -104 121 -172l-16 -18q-85 75 -125 180q-24 81 -24 160q0 38 5 75z" />
<glyph unicode="u" horiz-adv-x="989" d="M57 356l107 668h20l-106 -668q-5 -30 -4 -58q0 -106 68 -186q86 -102 229 -102q72 0 150 16t126.5 32.5t145.5 52.5l145 913h18l-161 -1024h-19l12 90l-14 -6q-249 -94 -407 -94h-7q-93 0 -168 48q-78 50 -115 136q-25 59 -25 123q0 29 5 59z" />
<glyph unicode="v" horiz-adv-x="1105" d="M162 1024h22q261 -965 275 -1006l592 1006h22l-622 -1059z" />
<glyph unicode="w" horiz-adv-x="1675" d="M162 1024h22q199 -948 209 -999l500 936q193 -885 205 -934l524 997h20l-555 -1057q-192 887 -204 936l-498 -932z" />
<glyph unicode="x" horiz-adv-x="970" d="M0 0l457 518l-293 506h24q73 -130 128 -226t81 -139t42 -69t22.5 -35.5t11.5 -19.5l440 489h25l-455 -506l293 -518h-22q-275 479 -287 502l-440 -502h-27z" />
<glyph unicode="y" horiz-adv-x="987" d="M57 358l107 666h20l-106 -666q-5 -31 -5 -60q0 -107 67 -186q84 -100 229 -100q74 0 150 15.5t126 32.5t146 53l145 911h18l-163 -1030q-17 -116 -97 -234q-70 -109 -180 -184l-10 16q98 65 176 179q77 121 92 223l14 96q-125 -47 -221.5 -71t-197.5 -27h-11 q-90 0 -164 47q-79 50 -116 137q-25 57 -25 119q0 31 6 63z" />
<glyph unicode="z" horiz-adv-x="987" d="M0 0q882 973 911 1004h-706l4 20h745q-884 -973 -911 -1004h731l-2 -20h-772z" />
<glyph unicode="{" horiz-adv-x="409" d="M111 707l4 22q38 0 70 27t38 65l33 205q17 107 54 192.5t100 194.5l16 31l16 -8l-18 -31q-44 -80 -64 -119.5t-47 -113.5t-39 -146l-32 -205q-4 -33 -27.5 -61.5t-54.5 -42.5q27 -12 40.5 -40.5t8.5 -62.5l-33 -204q-9 -55 -10.5 -104t7 -104.5t14 -80t20.5 -90.5l8 -31 l-18 -8l-9 31q-14 52 -21.5 89.5t-14 87t-5 101.5t10.5 109l32 204q6 38 -17.5 65.5t-61.5 27.5z" />
<glyph unicode="|" horiz-adv-x="215" d="M-16 -104l260 1644h20l-262 -1644h-18z" />
<glyph unicode="}" horiz-adv-x="409" d="M0 0l16 31q44 80 64 119.5t47 113.5t39 146l33 204q4 33 27.5 62t54.5 41q-28 13 -41.5 41.5t-8.5 62.5l33 205q9 55 10.5 104t-7 104.5t-14 80t-20.5 90.5l-6 31l17 8l8 -31q14 -52 22 -89t14.5 -87t5 -102t-10.5 -109l-33 -205q-6 -38 18 -65t62 -27l-4 -22 q-38 0 -70.5 -27.5t-38.5 -65.5l-33 -204q-17 -107 -54 -193.5t-99 -193.5l-17 -31z" />
<glyph unicode="~" horiz-adv-x="968" d="M66 422q12 83 79 137q68 55 154 55q103 0 178 -92q57 -71 144.5 -81.5t156.5 46.5q62 49 74 123h18q-13 -83 -79 -137q-34 -31 -80.5 -44.5t-92.5 -8.5q-95 13 -157 90q-68 84 -166 84q-79 0 -137 -49q-59 -44 -72 -123h-20z" />
<glyph unicode="&#xa1;" horiz-adv-x="215" d="M0 0l178 1128h21l-179 -1128h-20zM197 1243l30 193h21l-31 -193h-20z" />
<glyph unicode="&#xa2;" horiz-adv-x="888" d="M80 516q28 167 162.5 293t298.5 133l16 94h21l-17 -94q153 0 266 -94l-14 -17q-99 93 -244 93q-167 0 -304 -120t-165 -288q-25 -163 75.5 -285t264.5 -118q147 0 269 90l12 -17q-137 -92 -293 -92l-14 -94h-21l15 94q-106 5 -187.5 64.5t-119 155t-21.5 202.5z" />
<glyph unicode="&#xa3;" horiz-adv-x="1144" d="M0 -2l147 926q18 140 109.5 261.5t225 192t272.5 70.5q74 0 146 -15t113 -30.5t113 -46.5l27 -13l-10 -18l-25 12q-70 30 -112 45.5t-112 30t-142 14.5q-133 0 -261.5 -67.5t-216.5 -184t-106 -251.5q-11 -64 -25 -158h557l-4 -18h-557l-114 -730h927l-4 -20h-948z" />
<glyph unicode="&#xa4;" horiz-adv-x="1454" d="M2 0l266 233q-95 83 -135 214t-18 272q24 141 103 268t202 217l-193 232h29l184 -219q186 129 402 129q102 0 197 -34.5t161 -97.5l258 222h29l-270 -232q94 -89 134 -217.5t17 -267.5q-19 -123 -85.5 -241t-166.5 -202q-23 -23 -53 -43l197 -233h-29l-187 221 q-82 -54 -151 -80q-117 -47 -250 -47q-218 0 -360 127l-254 -221h-27zM135 719q-20 -122 10.5 -234t99 -193.5t173 -130t227.5 -48.5q130 0 244 47q122 50 215 131q98 85 161.5 196.5t82.5 231.5q25 162 -34 302t-185.5 223t-290.5 83q-123 0 -243.5 -49t-214.5 -131.5 t-160 -194.5t-85 -233z" />
<glyph unicode="&#xa5;" horiz-adv-x="1247" d="M227 1436h25q375 -690 385 -713l616 713h27l-635 -736l-29 -178h195l-4 -20h-195l-12 -82h195l-4 -21h-195l-61 -399h-21l61 399h-196l4 21h197l12 82h-197l4 20h197l29 183z" />
<glyph unicode="&#xa6;" horiz-adv-x="215" d="M-16 -104l102 659h20l-104 -659h-18zM139 881l105 659h20l-104 -659h-21z" />
<glyph unicode="&#xa7;" horiz-adv-x="983" d="M12 90l13 21q81 -35 129.5 -53t119.5 -34t136 -16q80 0 169 37.5t148 97.5q56 58 77 130.5t-3 137.5t-94 93q-67 32 -209 41q-154 14 -222 43q-120 52 -100 178q9 69 56.5 128.5t123.5 96.5q-9 3 -12 6q-57 22 -83.5 70.5t-16.5 112.5q12 77 69.5 139.5t134 94.5 t152.5 32q82 0 157.5 -21.5t172.5 -64.5l-10 -19q-95 42 -169 64t-153 22q-70 0 -142.5 -30.5t-127 -88.5t-64.5 -128q-18 -115 90 -164q68 -30 217 -39q51 -3 92 -9.5t87 -21.5t77 -37.5t52 -60t22 -86.5q3 -74 -35.5 -142.5t-107.5 -119.5q82 -59 73.5 -173t-92.5 -196 q-65 -65 -154 -103t-177 -38q-98 0 -188 25.5t-208 74.5zM197 766q-18 -112 88 -160q72 -29 217 -39q167 -16 237 -57q67 42 105.5 109.5t36.5 138.5q-7 179 -316 198q-114 9 -182 25q-79 -34 -128 -90.5t-58 -124.5z" />
<glyph unicode="&#xa8;" horiz-adv-x="225" d="M199 1257l32 205h21l-33 -205h-20zM301 1257l33 205h20l-32 -205h-21z" />
<glyph unicode="&#xa9;" horiz-adv-x="1646" d="M113 717q34 218 183 400.5t363 268.5q146 58 293 58q150 0 275 -58q123 -55 207.5 -158t118.5 -236t12 -275q-34 -215 -187 -403t-364 -267q-148 -57 -291 -57q-145 0 -277 57q-185 83 -276 269t-57 401zM131 717q-33 -209 58 -391.5t272 -259.5q128 -56 264 -56 q133 0 287 56q204 79 352 261t180 390q34 211 -56 390t-271 261q-129 57 -267 57q-142 0 -284 -57q-205 -79 -354 -260.5t-181 -390.5zM420 717q14 92 61.5 177t120.5 148q160 138 348 138q168 0 275 -107l-17 -16q-102 102 -262 102q-180 0 -330 -131q-151 -132 -178 -311 q-18 -116 25.5 -218t135 -162.5t208.5 -60.5q142 0 291 99l10 -17q-143 -100 -305 -100q-93 0 -171.5 36.5t-130 98t-74 146.5t-7.5 178z" />
<glyph unicode="&#xaa;" horiz-adv-x="677" d="M186 1184q17 109 109.5 187.5t202.5 78.5q37 0 75 -9t57 -16.5t72 -29.5l-73 -469h-19q11 58 13 78q-42 -40 -99 -64.5t-112 -24.5q-111 0 -178 78.5t-48 190.5zM205 1184q-17 -102 45.5 -175t165.5 -73q109 0 211 96q55 344 55 348l-8 4q-4 2 -11 5q-86 36 -144 40 q-12 1 -25 1q-103 0 -188.5 -72.5t-100.5 -173.5z" />
<glyph unicode="&#xab;" horiz-adv-x="653" d="M80 510l362 221l-4 -26q-294 -179 -321 -195l260 -193l-4 -24zM211 510l362 221l-4 -26q-294 -179 -321 -195l260 -193l-4 -24z" />
<glyph unicode="&#xac;" horiz-adv-x="768" d="M86 551l4 18h574l-21 -118h-18l16 100h-555z" />
<glyph unicode="&#xad;" horiz-adv-x="708" d="M78 502l4 18h514l-4 -18h-514z" />
<glyph unicode="&#xae;" horiz-adv-x="1644" d="M113 717q35 219 185 401t366 268q140 58 288 58q149 0 277 -58q186 -86 277 -268.5t57 -400.5t-183.5 -402.5t-363.5 -267.5q-151 -57 -293 -57q-146 0 -272 57q-188 77 -280 264.5t-58 405.5zM133 717q-33 -210 56 -391t270 -260q134 -56 266 -56q137 0 287 56 q204 79 353 261.5t181 389.5q32 208 -59.5 390t-269.5 261q-126 57 -267 57q-138 0 -286 -57q-206 -84 -351.5 -261.5t-179.5 -389.5zM506 270l143 904h332q108 0 174 -78.5t49 -186.5q-18 -109 -108 -186q-86 -73 -178 -76l184 -377h-23l-186 377h-303l-62 -377h-22z M592 666h309q98 0 182 71q86 68 103 172q15 100 -46 172t-161 72h-309q-1 -4 -78 -487z" />
<glyph unicode="&#xaf;" horiz-adv-x="385" d="M227 1442l4 20h283l-4 -20h-283z" />
<glyph unicode="&#xb0;" horiz-adv-x="419" d="M211 1335q8 46 47 80.5t84 34.5q46 0 74 -34.5t20 -80.5q-7 -46 -46 -79t-85 -33t-73.5 33t-20.5 79zM231 1335q-6 -38 16 -64t62 -26q39 0 70 26t37 64t-17 65t-61 27q-39 0 -70 -26.5t-37 -65.5z" />
<glyph unicode="&#xb1;" horiz-adv-x="710" d="M33 215l4 18h516l-4 -18h-516zM86 545l2 18h248l39 248h20l-39 -248h248l-2 -18h-248l-41 -248h-20l41 248h-248z" />
<glyph unicode="&#xb2;" horiz-adv-x="575" d="M115 727l12 16q4 4 88 95.5t176.5 194t106.5 120.5q52 61 61 125q10 63 -28 108.5t-101 45.5q-69 0 -145 -33l-6 18q93 35 155 35q72 0 115 -51t31 -123q-9 -67 -68 -135q-13 -15 -85 -95.5t-159.5 -177.5t-109.5 -122h340l-2 -21h-381z" />
<glyph unicode="&#xb3;" horiz-adv-x="575" d="M119 758l10 16q3 -1 17.5 -6t19.5 -6.5t18.5 -6t21 -6t20 -4.5t22 -4.5t22 -2.5t23.5 -1q75 0 138 55.5t75 131.5q12 75 -35 129q-38 53 -121 53h-12l4 20q63 0 113 44.5t59 107.5q11 63 -25.5 108.5t-99.5 45.5q-65 0 -147 -33l-6 18q93 35 157 35q72 0 114 -51t30 -123 q-7 -53 -44 -97t-87 -63q53 -13 81 -51q51 -58 39 -143q-13 -86 -82.5 -146.5t-154.5 -60.5q-74 0 -170 41z" />
<glyph unicode="&#xb4;" horiz-adv-x="329" d="M199 1262l233 200h27l-232 -200h-28z" />
<glyph unicode="&#xb6;" horiz-adv-x="1026" d="M162 1026q26 170 165.5 290t309.5 120h317l-131 -815h-317q-112 0 -197.5 53.5t-125 146.5t-21.5 205zM760 0l227 1436h21l-228 -1436h-20zM811 0l227 1436h21l-228 -1436h-20z" />
<glyph unicode="&#xb7;" horiz-adv-x="120" d="M68 434l24 154h19l-25 -154h-18z" />
<glyph unicode="&#xb8;" horiz-adv-x="286" d="M-43 -279l14 15q28 -21 54 -21q38 0 70 27t38 65t-17 65.5t-61 27.5h-10l16 100h21q-10 -64 -14 -80q43 -5 67.5 -37t18.5 -76q-7 -46 -46 -79t-85 -33q-40 0 -66 26z" />
<glyph unicode="&#xb9;" horiz-adv-x="272" d="M172 727q105 665 111 696l-50 -22l-10 18l84 37l-114 -729h-21z" />
<glyph unicode="&#xba;" horiz-adv-x="729" d="M186 1184q17 109 108.5 187.5t203.5 78.5q109 0 174.5 -78.5t48.5 -187.5q-19 -112 -109.5 -190.5t-199.5 -78.5q-113 0 -179 78.5t-47 190.5zM205 1184q-17 -102 45.5 -175t165.5 -73q101 0 185 72.5t101 175.5q15 101 -46 173.5t-162 72.5q-103 0 -188.5 -72.5 t-100.5 -173.5z" />
<glyph unicode="&#xbb;" horiz-adv-x="653" d="M45 293l4 24q295 179 322 193l-260 195l4 26l293 -221zM176 293l4 24q295 179 322 193l-260 195l4 26l293 -221z" />
<glyph unicode="&#xbc;" horiz-adv-x="841" d="M0 0l702 1436h23l-702 -1436h-23zM172 727q105 665 111 696l-50 -22l-10 18l84 37l-114 -729h-21zM205 236l465 497q-43 -270 -76 -477h92l-2 -20h-92l-37 -236h-18q18 125 36 236h-368zM248 256h327q61 377 68 418q-85 -85 -395 -418z" />
<glyph unicode="&#xbd;" horiz-adv-x="843" d="M0 0l702 1436h23l-702 -1436h-23zM172 727q105 665 111 696l-50 -22l-10 18l84 37l-114 -729h-21zM268 0l13 16q4 4 87.5 96t175 194t105.5 120q55 65 64 125q10 63 -28 108.5t-101 45.5q-69 0 -148 -33l-4 18q93 35 156 35q72 0 114.5 -51t30.5 -123q-10 -68 -67 -135 q-13 -15 -85.5 -96t-159.5 -178t-110 -122h340l-2 -20h-381z" />
<glyph unicode="&#xbe;" horiz-adv-x="1001" d="M119 758l10 16q3 -1 17.5 -6t19.5 -6.5t18.5 -6t21 -6t20 -4.5t22 -4.5t22 -2.5t23.5 -1q75 0 138 55.5t75 131.5q12 75 -35 129q-38 53 -121 53h-12l4 20q63 0 113 44.5t59 107.5q11 63 -25.5 108.5t-99.5 45.5q-65 0 -147 -33l-6 18q93 35 157 35q72 0 114 -51t30 -123 q-7 -53 -44 -97t-87 -63q53 -13 81 -51q51 -58 39 -143q-13 -86 -82.5 -146.5t-154.5 -60.5q-74 0 -170 41zM160 0l702 1436h23l-703 -1436h-22zM365 236l464 497q-42 -270 -75 -477h92l-2 -20h-92l-37 -236h-19q19 125 37 236h-368zM408 256h327q61 377 68 418 q-85 -85 -395 -418z" />
<glyph unicode="&#xbf;" horiz-adv-x="948" d="M61 391q26 169 164 283q136 117 301 117h11l53 335h18l-57 -356h-29q-160 0 -289 -111q-129 -113 -153 -268q-25 -161 72 -272q44 -55 110.5 -84t143.5 -29q146 0 354 78l4 -18q-213 -80 -363 -80q-171 0 -266 118q-102 120 -74 287zM608 1243l31 193h20l-30 -193h-21z " />
<glyph unicode="&#xc0;" horiz-adv-x="1447" d="M0 0l858 1462l395 -1462h-22q-78 290 -164 606h-690l-354 -606h-23zM389 627h672q-43 161 -94.5 352.5t-83 308t-33.5 123.5q-45 -75 -461 -784zM782 1716h29l168 -200h-29z" />
<glyph unicode="&#xc1;" horiz-adv-x="1447" d="M0 0l858 1462l395 -1462h-22q-78 290 -164 606h-690l-354 -606h-23zM389 627h672q-43 161 -94.5 352.5t-83 308t-33.5 123.5q-45 -75 -461 -784zM752 1516l233 200h27l-232 -200h-28z" />
<glyph unicode="&#xc2;" horiz-adv-x="1447" d="M0 0l858 1462l395 -1462h-22q-78 290 -164 606h-690l-354 -606h-23zM389 627h672q-43 161 -94.5 352.5t-83 308t-33.5 123.5q-45 -75 -461 -784zM702 1516l197 217l127 -217h-25q-98 164 -108 182l-164 -182h-27z" />
<glyph unicode="&#xc3;" horiz-adv-x="1447" d="M0 0l858 1462l395 -1462h-22q-78 290 -164 606h-690l-354 -606h-23zM389 627h672q-43 161 -94.5 352.5t-83 308t-33.5 123.5q-45 -75 -461 -784zM690 1604l23 4q-3 -34 20 -54q25 -23 64.5 -17t68.5 38q37 37 85 44t79 -22q27 -24 27 -65l-19 -2q-4 35 -22 51 q-27 24 -66 18.5t-69 -36.5q-37 -38 -85 -45t-79 22q-27 24 -27 64z" />
<glyph unicode="&#xc4;" horiz-adv-x="1447" d="M0 0l858 1462l395 -1462h-22q-78 290 -164 606h-690l-354 -606h-23zM389 627h672q-43 161 -94.5 352.5t-83 308t-33.5 123.5q-45 -75 -461 -784zM803 1516l33 204h20l-33 -204h-20zM905 1516l33 204h20l-32 -204h-21z" />
<glyph unicode="&#xc5;" horiz-adv-x="1447" d="M0 0l858 1462l395 -1462h-22q-78 290 -164 606h-690l-354 -606h-23zM389 627h672q-43 161 -94.5 352.5t-83 308t-33.5 123.5q-45 -75 -461 -784zM782 1616q6 41 39.5 69.5t75.5 28.5q41 0 65.5 -28.5t18.5 -69.5q-6 -42 -40.5 -71t-76.5 -29q-41 0 -64.5 28.5t-17.5 71.5 zM803 1616q-6 -33 13 -56.5t52 -23.5q34 0 60.5 23t32.5 57q5 33 -15 55.5t-53 22.5q-32 0 -59 -23t-31 -55z" />
<glyph unicode="&#xc6;" horiz-adv-x="1888" d="M-2 0l1124 1436h813l-4 -21h-792l-103 -647h541l-4 -23h-541l-114 -725h778l-2 -20h-799l117 745h-408l-584 -745h-22zM621 768l395 -2l100 631z" />
<glyph unicode="&#xc7;" horiz-adv-x="1388" d="M113 721q25 154 104 283q115 200 321 323t423 123q251 0 436 -164l-15 -16q-174 160 -426 160q-211 0 -408.5 -118.5t-311.5 -314.5q-80 -141 -103 -276q-21 -146 14 -279q47 -196 209 -315t375 -119q115 0 246 43q122 42 223 113l10 -17q-89 -65 -227 -116 q-125 -43 -246 -43l-12 -70q43 -3 67.5 -36t16.5 -77q-6 -47 -44 -79.5t-87 -32.5q-38 0 -64 26l13 17q23 -23 53 -23q39 0 71 27.5t37 64.5q6 39 -16 67t-61 28h-9l15 88q-211 3 -377 127t-213 319q-39 132 -14 287z" />
<glyph unicode="&#xc8;" horiz-adv-x="1009" d="M0 0l227 1436h815l-4 -21h-794l-103 -647h541l-4 -20h-541l-114 -728h794l-2 -20h-815zM578 1716h28l168 -200h-29z" />
<glyph unicode="&#xc9;" horiz-adv-x="1009" d="M0 0l227 1436h815l-4 -21h-794l-103 -647h541l-4 -20h-541l-114 -728h794l-2 -20h-815zM532 1516l234 200h27l-232 -200h-29z" />
<glyph unicode="&#xca;" horiz-adv-x="1009" d="M0 0l227 1436h815l-4 -21h-794l-103 -647h541l-4 -20h-541l-114 -728h794l-2 -20h-815zM492 1516l196 217l127 -217h-24q-99 164 -109 182l-164 -182h-26z" />
<glyph unicode="&#xcb;" horiz-adv-x="1009" d="M0 0l227 1436h815l-4 -21h-794l-103 -647h541l-4 -20h-541l-114 -728h794l-2 -20h-815zM604 1516l33 204h20l-32 -204h-21zM707 1516l32 204h21l-33 -204h-20z" />
<glyph unicode="&#xcc;" horiz-adv-x="290" d="M53 0l228 1436h20l-227 -1436h-21zM221 1716h29l168 -200h-29z" />
<glyph unicode="&#xcd;" horiz-adv-x="288" d="M53 0l228 1436h20l-227 -1436h-21zM188 1516l234 200h27l-232 -200h-29z" />
<glyph unicode="&#xce;" horiz-adv-x="385" d="M98 0l228 1436h20l-227 -1436h-21zM188 1516l197 217l127 -217h-25q-98 164 -108 182l-164 -182h-27z" />
<glyph unicode="&#xcf;" horiz-adv-x="184" d="M2 0l227 1436h21l-227 -1436h-21zM188 1516l33 204h21l-33 -204h-21zM291 1516l33 204h20l-33 -204h-20z" />
<glyph unicode="&#xd0;" horiz-adv-x="1443" d="M82 0l117 745h-82l4 21h82l106 670h445q143 0 270 -54q120 -54 207 -155q82 -102 119 -230q35 -124 12 -282q-25 -150 -102 -281q-74 -124 -191 -229q-112 -95 -256 -156q-129 -49 -287 -49h-444zM104 20h424q150 0 281 50q134 52 248 149q107 91 186 223q78 140 98 273 q20 137 -12 274q-36 129 -115 223q-86 99 -200 150q-115 53 -264 53h-424l-103 -649h207l-4 -21h-207z" />
<glyph unicode="&#xd1;" horiz-adv-x="1265" d="M0 0l231 1462q795 -1378 824 -1425l223 1399h20l-233 -1463q-796 1379 -823 1426l-222 -1399h-20zM596 1602l22 4q-3 -34 21 -54q25 -23 64.5 -17t68.5 38q37 37 85 44t79 -22q27 -24 27 -65l-19 -2q-4 35 -22 51q-27 24 -66.5 18.5t-69.5 -36.5q-37 -38 -84.5 -45 t-78.5 22q-27 24 -27 64z" />
<glyph unicode="&#xd2;" horiz-adv-x="1658" d="M113 719q23 146 101 282.5t196 235.5q107 96 258 158q140 57 293 57q146 0 272.5 -56t210.5 -159q88 -100 122.5 -236t10.5 -282q-23 -144 -101.5 -280.5t-195.5 -235.5q-115 -102 -260 -158.5t-291 -56.5q-145 0 -274 57q-188 87 -282.5 271t-59.5 403zM133 719 q-34 -210 58 -392t272 -264q135 -55 268 -55q141 0 281 54.5t256 154.5q116 99 191 230.5t97 271.5q23 142 -10 272.5t-119 231.5q-84 101 -206.5 155t-264.5 54q-139 0 -284 -56q-140 -58 -250 -153q-115 -99 -190.5 -231t-98.5 -273zM893 1718h29l168 -200h-29z" />
<glyph unicode="&#xd3;" horiz-adv-x="1658" d="M113 719q23 146 101 282.5t196 235.5q107 96 258 158q140 57 293 57q146 0 272.5 -56t210.5 -159q88 -100 122.5 -236t10.5 -282q-23 -144 -101.5 -280.5t-195.5 -235.5q-115 -102 -260 -158.5t-291 -56.5q-145 0 -274 57q-188 87 -282.5 271t-59.5 403zM133 719 q-34 -210 58 -392t272 -264q135 -55 268 -55q141 0 281 54.5t256 154.5q116 99 191 230.5t97 271.5q23 142 -10 272.5t-119 231.5q-84 101 -206.5 155t-264.5 54q-139 0 -284 -56q-140 -58 -250 -153q-115 -99 -190.5 -231t-98.5 -273zM864 1516l234 200h26l-231 -200h-29z " />
<glyph unicode="&#xd4;" horiz-adv-x="1658" d="M113 719q23 146 101 282.5t196 235.5q107 96 258 158q140 57 293 57q146 0 272.5 -56t210.5 -159q88 -100 122.5 -236t10.5 -282q-23 -144 -101.5 -280.5t-195.5 -235.5q-115 -102 -260 -158.5t-291 -56.5q-145 0 -274 57q-188 87 -282.5 271t-59.5 403zM133 719 q-34 -210 58 -392t272 -264q135 -55 268 -55q141 0 281 54.5t256 154.5q116 99 191 230.5t97 271.5q23 142 -10 272.5t-119 231.5q-84 101 -206.5 155t-264.5 54q-139 0 -284 -56q-140 -58 -250 -153q-115 -99 -190.5 -231t-98.5 -273zM813 1516l197 217l127 -217h-25 q-98 164 -108 182l-164 -182h-27z" />
<glyph unicode="&#xd5;" horiz-adv-x="1658" d="M113 719q23 146 101 282.5t196 235.5q107 96 258 158q140 57 293 57q146 0 272.5 -56t210.5 -159q88 -100 122.5 -236t10.5 -282q-23 -144 -101.5 -280.5t-195.5 -235.5q-115 -102 -260 -158.5t-291 -56.5q-145 0 -274 57q-188 87 -282.5 271t-59.5 403zM133 719 q-34 -210 58 -392t272 -264q135 -55 268 -55q141 0 281 54.5t256 154.5q116 99 191 230.5t97 271.5q23 142 -10 272.5t-119 231.5q-84 101 -206.5 155t-264.5 54q-139 0 -284 -56q-140 -58 -250 -153q-115 -99 -190.5 -231t-98.5 -273zM805 1604l22 4q-3 -34 21 -54 q25 -23 64.5 -17t68.5 38q37 37 85 44t79 -22q26 -23 26 -65l-18 -2q-3 34 -23 51q-27 24 -66 18.5t-69 -36.5q-37 -38 -85 -45t-79 22q-26 23 -26 64z" />
<glyph unicode="&#xd6;" horiz-adv-x="1658" d="M113 719q23 146 101 282.5t196 235.5q107 96 258 158q140 57 293 57q146 0 272.5 -56t210.5 -159q88 -100 122.5 -236t10.5 -282q-23 -144 -101.5 -280.5t-195.5 -235.5q-115 -102 -260 -158.5t-291 -56.5q-145 0 -274 57q-188 87 -282.5 271t-59.5 403zM133 719 q-34 -210 58 -392t272 -264q135 -55 268 -55q141 0 281 54.5t256 154.5q116 99 191 230.5t97 271.5q23 142 -10 272.5t-119 231.5q-84 101 -206.5 155t-264.5 54q-139 0 -284 -56q-140 -58 -250 -153q-115 -99 -190.5 -231t-98.5 -273zM915 1518l33 204h21l-33 -204h-21z M1018 1518l33 204h20l-33 -204h-20z" />
<glyph unicode="&#xd7;" horiz-adv-x="675" d="M41 262l266 246l-188 248l16 16l187 -248l264 248l14 -16l-266 -248l188 -246l-18 -14l-187 246l-264 -246z" />
<glyph unicode="&#xd8;" horiz-adv-x="1656" d="M102 0l172 172q-11 7 -28 33q-87 103 -121.5 236.5t-11.5 277.5q23 145 103 280t193.5 234t258 158t290.5 59q128 0 243.5 -44.5t199.5 -127.5l160 158h26l-170 -168q114 -141 144 -262q37 -137 13 -286t-104 -286q-118 -201 -322 -322.5t-421 -121.5q-127 0 -242.5 43 t-195.5 125l-160 -158h-27zM133 719q-22 -141 11 -273.5t118 -226.5q8 -12 29 -33l1093 1080q-84 78 -195.5 121t-234.5 43q-142 0 -282 -57.5t-250.5 -153.5t-188.5 -227t-100 -273zM303 172q83 -79 193 -120.5t233 -41.5q211 0 413.5 119.5t311.5 312.5q75 133 97.5 277.5 t-9.5 277.5q-40 146 -145 254z" />
<glyph unicode="&#xd9;" horiz-adv-x="1245" d="M82 516l147 920h21l-148 -920q-19 -100 6.5 -194t83 -162t144.5 -109t186 -41q133 0 262.5 68t218.5 186t105 252l147 920h21l-148 -920q-17 -141 -109 -263t-226 -192.5t-273 -70.5t-249.5 71t-163 193t-25.5 262zM678 1714h29l167 -201h-28z" />
<glyph unicode="&#xda;" horiz-adv-x="1245" d="M82 516l147 920h21l-148 -920q-19 -100 6.5 -194t83 -162t144.5 -109t186 -41q133 0 262.5 68t218.5 186t105 252l147 920h21l-148 -920q-17 -141 -109 -263t-226 -192.5t-273 -70.5t-249.5 71t-163 193t-25.5 262zM645 1516l234 200h26l-231 -200h-29z" />
<glyph unicode="&#xdb;" horiz-adv-x="1245" d="M82 516l147 920h21l-148 -920q-19 -100 6.5 -194t83 -162t144.5 -109t186 -41q133 0 262.5 68t218.5 186t105 252l147 920h21l-148 -920q-17 -141 -109 -263t-226 -192.5t-273 -70.5t-249.5 71t-163 193t-25.5 262zM592 1516l196 217l127 -217h-24q-99 164 -109 182 l-164 -182h-26z" />
<glyph unicode="&#xdc;" horiz-adv-x="1245" d="M82 516l147 920h21l-148 -920q-19 -100 6.5 -194t83 -162t144.5 -109t186 -41q133 0 262.5 68t218.5 186t105 252l147 920h21l-148 -920q-17 -141 -109 -263t-226 -192.5t-273 -70.5t-249.5 71t-163 193t-25.5 262zM696 1516l33 204h21l-33 -204h-21zM799 1516l32 204h21 l-33 -204h-20z" />
<glyph unicode="&#xdd;" horiz-adv-x="1249" d="M227 1436h27q375 -690 385 -713l616 713h27l-637 -736l-110 -700h-19l111 702zM651 1516l234 200h26l-231 -200h-29z" />
<glyph unicode="&#xde;" horiz-adv-x="1140" d="M0 0l227 1436h21l-47 -297h501q174 0 279 -123q68 -81 80 -189t-33.5 -216t-140.5 -187q-136 -121 -318 -121h-501l-48 -303h-20zM70 322h501q168 0 303 116q135 114 161.5 281t-70.5 282q-97 117 -267 117h-501q-17 -122 -127 -796z" />
<glyph unicode="&#xdf;" horiz-adv-x="987" d="M0 0l217 1382l27 11q53 20 81 29t76.5 18.5t96.5 9.5q136 0 217 -97.5t59 -234.5q-17 -107 -93.5 -192.5t-180.5 -118.5q114 -7 200.5 -73t125 -169.5t20.5 -216.5q-14 -90 -64.5 -176t-122 -149.5t-163.5 -101t-183 -34.5l2 21q117 -4 228.5 57t186.5 163.5t93 219.5 q19 117 -23 219t-134.5 162.5t-210.5 56.5h-64l4 23q128 0 233.5 91t125.5 218q20 128 -56.5 220t-203.5 92q-121 0 -258 -62l-216 -1368h-20z" />
<glyph unicode="&#xe0;" d="M80 514q36 219 211 371q180 151 395 151q106 0 187 -23t198 -75l14 86h19l-162 -1024h-18l26 178q-87 -90 -200 -138t-230 -48q-219 0 -346 151q-63 75 -87 171t-7 200zM100 514q-31 -211 93 -356q121 -146 329 -146q116 0 233 52.5t201 144.5l111 709l-20 8 q-66 29 -110 45.5t-113.5 30.5t-141.5 14q-209 0 -377 -148q-169 -140 -205 -354zM637 1436h29l168 -201h-29z" />
<glyph unicode="&#xe1;" d="M80 514q36 219 211 371q180 151 395 151q106 0 187 -23t198 -75l14 86h19l-162 -1024h-18l26 178q-87 -90 -200 -138t-230 -48q-219 0 -346 151q-63 75 -87 171t-7 200zM100 514q-31 -211 93 -356q121 -146 329 -146q116 0 233 52.5t201 144.5l111 709l-20 8 q-66 29 -110 45.5t-113.5 30.5t-141.5 14q-209 0 -377 -148q-169 -140 -205 -354zM606 1235l234 201h26l-231 -201h-29z" />
<glyph unicode="&#xe2;" d="M80 514q36 219 211 371q180 151 395 151q106 0 187 -23t198 -75l14 86h19l-162 -1024h-18l26 178q-87 -90 -200 -138t-230 -48q-219 0 -346 151q-63 75 -87 171t-7 200zM100 514q-31 -211 93 -356q121 -146 329 -146q116 0 233 52.5t201 144.5l111 709l-20 8 q-66 29 -110 45.5t-113.5 30.5t-141.5 14q-209 0 -377 -148q-169 -140 -205 -354zM551 1219l197 217l126 -217h-24q-99 164 -109 182l-163 -182h-27z" />
<glyph unicode="&#xe3;" d="M80 514q36 219 211 371q180 151 395 151q106 0 187 -23t198 -75l14 86h19l-162 -1024h-18l26 178q-87 -90 -200 -138t-230 -48q-219 0 -346 151q-63 75 -87 171t-7 200zM100 514q-31 -211 93 -356q121 -146 329 -146q116 0 233 52.5t201 144.5l111 709l-20 8 q-66 29 -110 45.5t-113.5 30.5t-141.5 14q-209 0 -377 -148q-169 -140 -205 -354zM551 1419l22 4q-3 -33 21 -53q25 -23 64.5 -17t68.5 38q37 37 85 44t79 -22q27 -24 27 -65l-19 -2q-4 35 -22 51q-27 24 -66.5 18t-69.5 -37q-37 -38 -84.5 -44.5t-78.5 22.5q-27 24 -27 63z " />
<glyph unicode="&#xe4;" d="M80 514q36 219 211 371q180 151 395 151q106 0 187 -23t198 -75l14 86h19l-162 -1024h-18l26 178q-87 -90 -200 -138t-230 -48q-219 0 -346 151q-63 75 -87 171t-7 200zM100 514q-31 -211 93 -356q121 -146 329 -146q116 0 233 52.5t201 144.5l111 709l-20 8 q-66 29 -110 45.5t-113.5 30.5t-141.5 14q-209 0 -377 -148q-169 -140 -205 -354zM651 1231l33 205h21l-33 -205h-21zM754 1231l32 205h21l-33 -205h-20z" />
<glyph unicode="&#xe5;" d="M80 514q36 219 211 371q180 151 395 151q106 0 187 -23t198 -75l14 86h19l-162 -1024h-18l26 178q-87 -90 -200 -138t-230 -48q-219 0 -346 151q-63 75 -87 171t-7 200zM100 514q-31 -211 93 -356q121 -146 329 -146q116 0 233 52.5t201 144.5l111 709l-20 8 q-66 29 -110 45.5t-113.5 30.5t-141.5 14q-209 0 -377 -148q-169 -140 -205 -354zM631 1337q6 41 39.5 70t74.5 29t65.5 -29t18.5 -70q-6 -42 -40 -71t-76 -29q-41 0 -64.5 28.5t-17.5 71.5zM651 1337q-6 -33 13.5 -56.5t52.5 -23.5q34 0 60 23t32 57q5 33 -15 55.5 t-53 22.5q-32 0 -59 -23t-31 -55z" />
<glyph unicode="&#xe6;" horiz-adv-x="1972" d="M80 514q23 142 113 262.5t222 190t273 69.5q73 0 144.5 -15.5t116 -32.5t130.5 -54q77 51 160 74q89 28 176 28q105 0 196 -41.5t151 -111t86 -166.5t7 -203l-2 -12h-833l-45 -293q44 -91 127.5 -145t187.5 -54q64 0 131 15t104.5 29.5t110.5 45.5l27 15l6 -17l-27 -14 q-69 -31 -111.5 -47.5t-109.5 -31.5t-133 -15q-103 0 -186 49t-133 135l-27 -174h-18q18 121 26 176q-86 -87 -200 -136.5t-228 -49.5q-143 0 -252.5 70t-160.5 191t-29 263zM100 514q-21 -136 27.5 -252t154 -184t242.5 -68q116 0 231.5 53.5t200.5 145.5l111 706 q-65 28 -91 38.5t-81 29.5t-105 26t-106 7q-136 0 -262.5 -67t-213 -182.5t-108.5 -252.5zM1024 524h813q22 133 -29.5 247t-157.5 179.5t-239 65.5q-89 0 -168 -27q-95 -31 -158 -71z" />
<glyph unicode="&#xe7;" horiz-adv-x="1048" d="M80 514q22 140 112 260.5t222 191t272 70.5q184 0 311 -118l-16 -17q-115 115 -299 115q-135 0 -261.5 -68t-213 -183.5t-107.5 -250.5q-21 -137 28.5 -252.5t154 -182.5t239.5 -67q90 0 178 29q89 30 156 78l10 -17q-67 -48 -164 -82q-81 -26 -172 -32l-12 -68 q44 -3 69 -36.5t17 -78.5q-6 -47 -43.5 -78.5t-85.5 -31.5q-40 0 -67 24l14 17q26 -23 55 -23q38 0 68.5 27t36.5 65q7 40 -14.5 67.5t-59.5 27.5h-12l14 88q-137 1 -244.5 74.5t-157 194.5t-28.5 257z" />
<glyph unicode="&#xe8;" horiz-adv-x="1247" d="M80 510q36 219 213 373q180 153 395 153q106 0 197 -42.5t151.5 -113.5t86 -170.5t5.5 -207.5h-1030q-28 -203 92 -348q61 -72 147.5 -110t186.5 -38q73 0 148 14.5t122.5 30t127.5 45.5l26 13l6 -17l-28 -12q-116 -47 -206.5 -70.5t-199.5 -23.5q-213 0 -346 155 q-129 155 -94 369zM102 520h1010q17 100 -10 192.5t-86.5 158.5t-146.5 105.5t-185 39.5q-208 0 -379 -148q-81 -68 -133.5 -158.5t-69.5 -189.5zM635 1436h29l167 -201h-28z" />
<glyph unicode="&#xe9;" horiz-adv-x="1247" d="M80 510q36 219 213 373q180 153 395 153q106 0 197 -42.5t151.5 -113.5t86 -170.5t5.5 -207.5h-1030q-28 -203 92 -348q61 -72 147.5 -110t186.5 -38q73 0 148 14.5t122.5 30t127.5 45.5l26 13l6 -17l-28 -12q-116 -47 -206.5 -70.5t-199.5 -23.5q-213 0 -346 155 q-129 155 -94 369zM102 520h1010q17 100 -10 192.5t-86.5 158.5t-146.5 105.5t-185 39.5q-208 0 -379 -148q-81 -68 -133.5 -158.5t-69.5 -189.5zM608 1235l234 201h26l-231 -201h-29z" />
<glyph unicode="&#xea;" horiz-adv-x="1247" d="M80 510q36 219 213 373q180 153 395 153q106 0 197 -42.5t151.5 -113.5t86 -170.5t5.5 -207.5h-1030q-28 -203 92 -348q61 -72 147.5 -110t186.5 -38q73 0 148 14.5t122.5 30t127.5 45.5l26 13l6 -17l-28 -12q-116 -47 -206.5 -70.5t-199.5 -23.5q-213 0 -346 155 q-129 155 -94 369zM102 520h1010q17 100 -10 192.5t-86.5 158.5t-146.5 105.5t-185 39.5q-208 0 -379 -148q-81 -68 -133.5 -158.5t-69.5 -189.5zM559 1221l197 217l127 -217h-25q-98 164 -108 182l-164 -182h-27z" />
<glyph unicode="&#xeb;" horiz-adv-x="1247" d="M80 510q36 219 213 373q180 153 395 153q106 0 197 -42.5t151.5 -113.5t86 -170.5t5.5 -207.5h-1030q-28 -203 92 -348q61 -72 147.5 -110t186.5 -38q73 0 148 14.5t122.5 30t127.5 45.5l26 13l6 -17l-28 -12q-116 -47 -206.5 -70.5t-199.5 -23.5q-213 0 -346 155 q-129 155 -94 369zM102 520h1010q17 100 -10 192.5t-86.5 158.5t-146.5 105.5t-185 39.5q-208 0 -379 -148q-81 -68 -133.5 -158.5t-69.5 -189.5zM659 1231l33 205h21l-33 -205h-21zM762 1231l33 205h20l-33 -205h-20z" />
<glyph unicode="&#xec;" horiz-adv-x="290" d="M53 0l162 1024h21l-162 -1024h-21zM176 1436h29l168 -201h-29z" />
<glyph unicode="&#xed;" horiz-adv-x="288" d="M51 0l162 1024h20l-161 -1024h-21zM143 1235l234 201h26l-231 -201h-29z" />
<glyph unicode="&#xee;" horiz-adv-x="385" d="M100 0l162 1024h21l-162 -1024h-21zM141 1219l197 217l127 -217h-25q-98 164 -108 182l-164 -182h-27z" />
<glyph unicode="&#xef;" horiz-adv-x="184" d="M0 0l162 1024h20l-162 -1024h-20zM143 1231l33 205h21l-33 -205h-21zM246 1231l33 205h20l-33 -205h-20z" />
<glyph unicode="&#xf0;" horiz-adv-x="1132" d="M74 469q31 192 190.5 330.5t351.5 138.5q85 0 163 -21.5t173 -62.5q-3 9 -17 59t-36.5 129t-40.5 140l-133 -52l-6 19l133 51l-66 236l19 8l67 -236l150 58l4 -19l-147 -57l106 -375q13 -53 18.5 -81t12.5 -75.5t5.5 -93.5t-9.5 -96q-15 -94 -64 -180t-125 -152 q-158 -137 -354 -137q-126 0 -224.5 63.5t-144.5 171.5t-26 234zM94 469q-19 -120 25 -223.5t138 -164.5t214 -61q190 0 340 132q74 63 121.5 145.5t60.5 171.5q7 49 8 94t-5.5 90t-12.5 75t-18 79q-4 16 -4 22q-75 32 -110 45.5t-103 28.5t-136 15q-120 0 -233 -61.5 t-190 -165t-95 -222.5z" />
<glyph unicode="&#xf1;" horiz-adv-x="980" d="M0 0l162 1024h20l-14 -88q126 48 221.5 72.5t196.5 27.5q154 0 237 -106q92 -109 70 -256l-107 -674h-20l106 674q22 141 -63 241.5t-227 100.5q-72 0 -150 -16.5t-122.5 -31.5t-145.5 -53l-144 -915h-20zM432 1417l23 4q-3 -33 20 -53q25 -23 64.5 -17t68.5 38 q37 37 85 44t79 -22q27 -24 27 -65l-19 -3q-4 36 -22 52q-27 24 -66 18t-69 -37q-37 -38 -85 -44.5t-79 22.5q-27 24 -27 63z" />
<glyph unicode="&#xf2;" horiz-adv-x="1241" d="M80 512q17 107 71.5 202.5t141.5 168.5q86 74 187.5 113.5t205.5 39.5q106 0 196 -42t149 -112t85.5 -167t9.5 -203q-22 -140 -111.5 -260.5t-221.5 -191t-273 -70.5q-103 0 -193 40t-151 113q-64 73 -88.5 169t-7.5 200zM100 512q-15 -100 8.5 -192t84.5 -162 q58 -71 144 -109.5t185 -38.5q135 0 262 68t214 183.5t108 250.5q21 136 -28.5 252t-154.5 184t-241 68q-99 0 -197.5 -38.5t-179.5 -109.5q-168 -140 -205 -356zM635 1436h29l167 -201h-28z" />
<glyph unicode="&#xf3;" horiz-adv-x="1241" d="M80 512q17 107 71.5 202.5t141.5 168.5q86 74 187.5 113.5t205.5 39.5q106 0 196 -42t149 -112t85.5 -167t9.5 -203q-22 -140 -111.5 -260.5t-221.5 -191t-273 -70.5q-103 0 -193 40t-151 113q-64 73 -88.5 169t-7.5 200zM100 512q-15 -100 8.5 -192t84.5 -162 q58 -71 144 -109.5t185 -38.5q135 0 262 68t214 183.5t108 250.5q21 136 -28.5 252t-154.5 184t-241 68q-99 0 -197.5 -38.5t-179.5 -109.5q-168 -140 -205 -356zM602 1235l234 201h26l-231 -201h-29z" />
<glyph unicode="&#xf4;" horiz-adv-x="1241" d="M80 512q17 107 71.5 202.5t141.5 168.5q86 74 187.5 113.5t205.5 39.5q106 0 196 -42t149 -112t85.5 -167t9.5 -203q-22 -140 -111.5 -260.5t-221.5 -191t-273 -70.5q-103 0 -193 40t-151 113q-64 73 -88.5 169t-7.5 200zM100 512q-15 -100 8.5 -192t84.5 -162 q58 -71 144 -109.5t185 -38.5q135 0 262 68t214 183.5t108 250.5q21 136 -28.5 252t-154.5 184t-241 68q-99 0 -197.5 -38.5t-179.5 -109.5q-168 -140 -205 -356zM553 1221l197 217l127 -217h-25q-99 164 -109 182l-163 -182h-27z" />
<glyph unicode="&#xf5;" horiz-adv-x="1241" d="M80 512q17 107 71.5 202.5t141.5 168.5q86 74 187.5 113.5t205.5 39.5q106 0 196 -42t149 -112t85.5 -167t9.5 -203q-22 -140 -111.5 -260.5t-221.5 -191t-273 -70.5q-103 0 -193 40t-151 113q-64 73 -88.5 169t-7.5 200zM100 512q-15 -100 8.5 -192t84.5 -162 q58 -71 144 -109.5t185 -38.5q135 0 262 68t214 183.5t108 250.5q21 136 -28.5 252t-154.5 184t-241 68q-99 0 -197.5 -38.5t-179.5 -109.5q-168 -140 -205 -356zM555 1417l23 4q-3 -33 20 -53q25 -23 64.5 -17t68.5 38q37 37 85 44t79 -22q27 -24 27 -65l-19 -3 q-4 36 -22 52q-27 24 -66.5 18t-69.5 -37q-37 -38 -84.5 -44.5t-78.5 22.5q-27 24 -27 63z" />
<glyph unicode="&#xf6;" horiz-adv-x="1241" d="M80 512q17 107 71.5 202.5t141.5 168.5q86 74 187.5 113.5t205.5 39.5q106 0 196 -42t149 -112t85.5 -167t9.5 -203q-22 -140 -111.5 -260.5t-221.5 -191t-273 -70.5q-103 0 -193 40t-151 113q-64 73 -88.5 169t-7.5 200zM100 512q-15 -100 8.5 -192t84.5 -162 q58 -71 144 -109.5t185 -38.5q135 0 262 68t214 183.5t108 250.5q21 136 -28.5 252t-154.5 184t-241 68q-99 0 -197.5 -38.5t-179.5 -109.5q-168 -140 -205 -356zM657 1231l33 205h21l-33 -205h-21zM760 1231l33 205h20l-33 -205h-20z" />
<glyph unicode="&#xf7;" horiz-adv-x="708" d="M78 502l4 18h514l-4 -18h-514zM287 254l24 156h19l-25 -156h-18zM344 614l25 154h18l-25 -154h-18z" />
<glyph unicode="&#xf8;" horiz-adv-x="1241" d="M80 512q22 139 112 260t222 192.5t272 71.5q182 0 297 -106l92 94h25l-103 -106q5 -4 11 -10t13 -13.5t11 -11.5q128 -163 94 -371q-35 -210 -211 -369q-186 -153 -395 -153q-181 0 -301 108l-94 -98h-27l107 111q-17 17 -29 32q-131 156 -96 369zM100 512 q-31 -208 93 -354q4 -5 13 -15.5t13 -15.5l750 786q-115 103 -287 103q-135 0 -261.5 -68.5t-213 -184.5t-107.5 -251zM233 113q119 -103 289 -103q206 0 381 148q82 71 135 163t68 191q17 100 -7 192.5t-83 163.5q-6 5 -17.5 16.5t-17.5 16.5z" />
<glyph unicode="&#xf9;" horiz-adv-x="989" d="M57 356l107 668h20l-106 -668q-23 -142 63.5 -244t229.5 -102q72 0 150 16t126.5 32.5t145.5 52.5l145 913h18l-161 -1024h-19l12 90l-14 -6q-249 -94 -407 -94q-97 -2 -175 48.5t-115 136t-20 181.5zM524 1436h29l168 -201h-29z" />
<glyph unicode="&#xfa;" horiz-adv-x="989" d="M57 356l107 668h20l-106 -668q-23 -142 63.5 -244t229.5 -102q72 0 150 16t126.5 32.5t145.5 52.5l145 913h18l-161 -1024h-19l12 90l-14 -6q-249 -94 -407 -94q-97 -2 -175 48.5t-115 136t-20 181.5zM498 1235l233 201h27l-232 -201h-28z" />
<glyph unicode="&#xfb;" horiz-adv-x="989" d="M57 356l107 668h20l-106 -668q-23 -142 63.5 -244t229.5 -102q72 0 150 16t126.5 32.5t145.5 52.5l145 913h18l-161 -1024h-19l12 90l-14 -6q-249 -94 -407 -94q-97 -2 -175 48.5t-115 136t-20 181.5zM442 1219l197 217l127 -217h-25q-98 164 -108 182l-164 -182h-27z " />
<glyph unicode="&#xfc;" horiz-adv-x="989" d="M57 356l107 668h20l-106 -668q-23 -142 63.5 -244t229.5 -102q72 0 150 16t126.5 32.5t145.5 52.5l145 913h18l-161 -1024h-19l12 90l-14 -6q-249 -94 -407 -94q-97 -2 -175 48.5t-115 136t-20 181.5zM541 1231l32 205h21l-33 -205h-20zM643 1231l33 205h20l-32 -205h-21 z" />
<glyph unicode="&#xfd;" horiz-adv-x="987" d="M57 358l107 666h20l-106 -666q-23 -145 61.5 -245.5t229.5 -100.5q74 0 150 15.5t126 32.5t146 53l145 911h18l-163 -1030q-17 -116 -97 -234q-70 -109 -180 -184l-10 16q98 65 176 179q77 121 92 223l14 96q-125 -47 -221.5 -71t-197.5 -27q-97 -3 -175.5 47t-116 136.5 t-18.5 182.5zM508 1235l233 201h27l-231 -201h-29z" />
<glyph unicode="&#xfe;" horiz-adv-x="1146" d="M-66 -424l293 1860h21l-80 -498l16 6q116 45 206.5 68.5t197.5 23.5q104 0 193.5 -39.5t154.5 -111.5q62 -74 87.5 -172t8.5 -203t-73 -202.5t-142 -170.5t-189.5 -113t-207.5 -40q-116 0 -216 48.5t-157 137.5l-92 -594h-21zM51 205q53 -95 153.5 -148t219.5 -53 q99 0 198 38.5t181 107.5q173 150 209 360q17 101 -8 194t-86 166q-60 71 -147 109.5t-187 38.5q-105 0 -193 -23t-203 -69q-16 -8 -24 -8z" />
<glyph unicode="&#xff;" horiz-adv-x="987" d="M57 358l107 666h20l-106 -666q-23 -145 61.5 -245.5t229.5 -100.5q74 0 150 15.5t126 32.5t146 53l145 911h18l-163 -1030q-17 -116 -97 -234q-70 -109 -180 -184l-10 16q98 65 176 179q77 121 92 223l14 96q-125 -47 -221.5 -71t-197.5 -27q-97 -3 -175.5 47t-116 136.5 t-18.5 182.5zM551 1233l33 205h20l-33 -205h-20zM653 1233l33 205h21l-33 -205h-21z" />
<glyph unicode="&#x152;" horiz-adv-x="2226" d="M113 717q23 146 103 281t193 233t257 156.5t290 58.5q134 0 251.5 -46.5t203.5 -135.5l29 172h819l-4 -21h-803l-104 -657h546l-2 -19h-546l-115 -719h803l-2 -20h-820l27 170q-236 -182 -512 -182q-146 0 -271.5 58.5t-208.5 156.5t-120 233t-14 281zM133 717 q-22 -140 14.5 -272t116 -229t201.5 -154.5t264 -53.5q133 0 265.5 49.5t248.5 141.5l164 1036q-84 92 -201.5 141t-251.5 49q-114 0 -227 -36t-211 -102t-178 -153t-133.5 -195t-71.5 -222z" />
<glyph unicode="&#x153;" horiz-adv-x="2271" d="M80 512q17 107 71.5 202.5t141.5 168.5q86 74 187.5 113.5t205.5 39.5q187 0 312.5 -121t134.5 -303q59 158 186 271q180 153 395 153q106 0 197 -42.5t151.5 -113.5t86 -170.5t5.5 -207.5h-1030q-28 -202 93 -348q61 -72 147 -110t186 -38q73 0 148 14.5t122.5 30 t127.5 45.5l26 13l6 -17l-28 -12q-116 -47 -206.5 -70.5t-199.5 -23.5q-213 0 -346 155q-96 113 -102 269q-64 -180 -227 -300t-351 -120q-103 0 -193 40t-151 113q-64 73 -88.5 169t-7.5 200zM100 512q-15 -100 8.5 -192t84.5 -162q58 -71 144 -109.5t185 -38.5 q131 0 255.5 64.5t212 175.5t114.5 242l2 18v2l4 18q11 99 -16.5 189t-84.5 155t-142.5 103.5t-184.5 38.5t-197.5 -38.5t-179.5 -109.5q-168 -140 -205 -356zM1128 520h1010q17 100 -10 192.5t-86.5 158.5t-146.5 105.5t-185 39.5q-208 0 -379 -148q-80 -68 -132 -155.5 t-69 -182.5z" />
<glyph unicode="&#x178;" horiz-adv-x="1249" d="M227 1436h27q375 -690 385 -713l616 713h27l-637 -736l-110 -700h-19l111 702zM702 1516l33 204h21l-33 -204h-21zM805 1516l33 204h20l-33 -204h-20z" />
<glyph unicode="&#x2c6;" horiz-adv-x="425" d="M197 1245l196 217l127 -217h-24q-99 164 -109 182l-164 -182h-26z" />
<glyph unicode="&#x2dc;" horiz-adv-x="479" d="M227 1446l23 4q-3 -33 20 -53q25 -23 64.5 -17.5t68.5 37.5q37 37 85 44.5t79 -21.5q27 -24 27 -66l-19 -2q-4 35 -22 51q-27 24 -66 18.5t-69 -36.5q-37 -38 -85 -45t-79 22q-27 24 -27 64z" />
<glyph unicode="&#x2000;" horiz-adv-x="866" />
<glyph unicode="&#x2001;" horiz-adv-x="1733" />
<glyph unicode="&#x2002;" horiz-adv-x="866" />
<glyph unicode="&#x2003;" horiz-adv-x="1733" />
<glyph unicode="&#x2004;" horiz-adv-x="577" />
<glyph unicode="&#x2005;" horiz-adv-x="433" />
<glyph unicode="&#x2006;" horiz-adv-x="288" />
<glyph unicode="&#x2007;" horiz-adv-x="288" />
<glyph unicode="&#x2008;" horiz-adv-x="216" />
<glyph unicode="&#x2009;" horiz-adv-x="346" />
<glyph unicode="&#x200a;" horiz-adv-x="96" />
<glyph unicode="&#x2010;" horiz-adv-x="708" d="M78 502l4 18h514l-4 -18h-514z" />
<glyph unicode="&#x2011;" horiz-adv-x="708" d="M78 502l4 18h514l-4 -18h-514z" />
<glyph unicode="&#x2012;" horiz-adv-x="708" d="M78 502l4 18h514l-4 -18h-514z" />
<glyph unicode="&#x2013;" horiz-adv-x="708" d="M78 502l4 18h514l-4 -18h-514z" />
<glyph unicode="&#x2014;" horiz-adv-x="823" d="M78 502l4 18h629l-4 -18h-629z" />
<glyph unicode="&#x2018;" horiz-adv-x="196" d="M213 1348l18 114h21l-19 -114q-8 -55 1 -76t51 -58l-15 -16q-45 38 -56 63t-1 87z" />
<glyph unicode="&#x2019;" horiz-adv-x="196" d="M190 1214q40 26 54.5 38.5t25.5 34.5t17 61l18 114h21l-19 -114q-10 -62 -29 -87t-77 -63z" />
<glyph unicode="&#x201a;" horiz-adv-x="196" d="M-14 -94q53 36 68.5 56.5t25.5 76.5l16 115h21l-17 -115q-10 -62 -28.5 -87t-75.5 -63z" />
<glyph unicode="&#x201c;" horiz-adv-x="329" d="M213 1348l18 114h21l-19 -114q-8 -55 1 -76t51 -58l-15 -16q-45 38 -56 63t-1 87zM346 1348l19 114h20l-18 -114q-9 -55 0.5 -76.5t50.5 -57.5l-15 -16q-45 38 -56 63t-1 87z" />
<glyph unicode="&#x201d;" horiz-adv-x="329" d="M190 1214q40 26 54.5 38.5t25.5 34.5t17 61l18 114h21l-19 -114q-10 -62 -29 -87t-77 -63zM324 1214q55 36 71 57.5t25 76.5l18 114h21l-19 -114q-10 -62 -29 -87t-77 -63z" />
<glyph unicode="&#x201e;" horiz-adv-x="329" d="M-14 -94q53 36 68.5 56.5t25.5 76.5l16 115h21l-17 -115q-10 -62 -28.5 -87t-75.5 -63zM117 -94q54 36 70 56.5t26 76.5l16 115h21l-17 -115q-10 -62 -29 -87t-77 -63z" />
<glyph unicode="&#x2022;" horiz-adv-x="399" d="M80 514q8 43 42 72.5t77 29.5t68 -29.5t18 -72.5q-6 -42 -41 -72t-78 -30t-67.5 29.5t-18.5 72.5z" />
<glyph unicode="&#x2026;" horiz-adv-x="423" d="M0 0l23 154h18l-23 -154h-18zM152 0l22 154h19l-23 -154h-18zM303 0l23 154h18l-22 -154h-19z" />
<glyph unicode="&#x202f;" horiz-adv-x="346" />
<glyph unicode="&#x2039;" horiz-adv-x="522" d="M80 510l362 221l-4 -26q-294 -179 -321 -195l260 -193l-4 -24z" />
<glyph unicode="&#x203a;" horiz-adv-x="522" d="M45 293l4 24q295 179 322 193l-260 195l4 26l293 -221z" />
<glyph unicode="&#x205f;" horiz-adv-x="433" />
<glyph unicode="&#x20ac;" horiz-adv-x="1384" d="M113 719q25 155 102 285q75 127 193.5 229t255.5 158q140 57 292 57q128 0 241.5 -42t195.5 -122l-15 -16q-83 76 -193.5 117.5t-230.5 41.5q-148 0 -282 -55q-137 -53 -253 -152.5t-188 -226.5q-63 -107 -90 -225h555l-4 -20h-555q-14 -88 -12 -121h549l-4 -21h-547 q3 -94 22 -162q32 -127 116 -226t204 -152q110 -51 245.5 -55t264.5 40q121 41 223 115l10 -16q-107 -76 -229 -117q-133 -46 -272.5 -43t-255.5 57q-119 56 -205 158t-121 229q-33 143 -12 285z" />
<glyph unicode="&#x2122;" horiz-adv-x="1144" d="M223 1413l4 23h400l-4 -23h-191l-78 -487h-20l78 487h-189zM602 926l84 528q181 -322 193 -342l301 342l-84 -528h-21q66 412 74 467l-277 -318q-153 275 -178 318l-73 -467h-19z" />
<glyph unicode="&#x25fc;" horiz-adv-x="1024" d="M0 0v1024h1024v-1024h-1024z" />
<glyph unicode="&#xfb02;" horiz-adv-x="727" d="M0 0l162 1034q21 129 96 240q66 102 180 180l11 -16q-106 -71 -177 -174q-70 -112 -90 -230v-10h144l-4 -18h-144l-158 -1006h-20zM373 399l166 1037h18l-166 -1037q-18 -119 18.5 -227t122.5 -172l-16 -20q-87 75 -125 186.5t-18 232.5z" />
<glyph unicode="&#xfb03;" horiz-adv-x="845" d="M0 0l162 1034q21 129 96 240q66 102 180 180l11 -16q-106 -71 -177 -174q-70 -112 -90 -230v-10h260v10q21 127 97 240q66 102 180 180l10 -16q-104 -70 -176 -174q-70 -112 -90 -230v-10h350l-162 -1024h-20l157 1006h-329l-158 -1006h-20l157 1006h-260l-158 -1006h-20 zM825 1231l33 205h21l-33 -205h-21z" />
</font>
</defs>
</svg>
